<svg width="55" height="55" viewBox="0 0 55 55" fill="none" xmlns="http://www.w3.org/2000/svg">
<g clip-path="url(#clip0_814_48595)">
<g style="mix-blend-mode:multiply" opacity="0.8">
<path opacity="0.7" d="M52.1409 37.6517C57.7972 24.1695 51.4531 8.65455 37.9708 2.9982C24.4886 -2.65815 8.97364 3.68601 3.31729 17.1683C-2.33906 30.6505 4.0051 46.1655 17.4874 51.8218C30.9696 57.4782 46.4845 51.134 52.1409 37.6517Z" fill="white"/>
</g>
<path d="M55 27.5008C55 32.94 53.3871 38.2571 50.3652 42.7796C47.3433 47.3021 43.0481 50.827 38.0229 52.9084C32.9977 54.9898 27.4681 55.5344 22.1334 54.4731C16.7988 53.4118 11.8986 50.7925 8.05259 46.9463C4.2066 43.1 1.58753 38.1997 0.526585 32.865C-0.534355 27.5302 0.0104865 22.0007 2.09221 16.9756C4.17393 11.9505 7.69904 7.65556 12.2217 4.63393C16.7444 1.6123 22.0616 -0.000323599 27.5008 4.87066e-08C34.7942 0.000434024 41.7887 2.89802 46.9458 8.05538C52.1028 13.2127 55 20.2074 55 27.5008Z" fill="url(#paint0_linear_814_48595)"/>
<path d="M54.0673 27.5009C54.0673 32.7557 52.509 37.8924 49.5896 42.2616C46.6702 46.6307 42.5208 50.036 37.666 52.0468C32.8112 54.0576 27.4692 54.5837 22.3154 53.5584C17.1617 52.5331 12.4277 50.0026 8.71214 46.2868C4.99659 42.5711 2.46635 37.8369 1.4414 32.6831C0.416451 27.5293 0.942822 22.1873 2.95395 17.3326C4.96508 12.478 8.37063 8.32874 12.7399 5.4096C17.1093 2.49045 22.2461 0.932538 27.5008 0.932861C34.5467 0.933729 41.3037 3.73319 46.2858 8.71553C51.2678 13.6979 54.0668 20.4551 54.0673 27.5009Z" fill="url(#paint1_linear_814_48595)"/>
<path d="M28.751 15.0791C26.3046 15.0791 24.2919 15.7991 22.7701 17.2195C21.2483 18.6398 20.4104 20.6738 20.4104 22.8617V23.9368L17.7546 29.1388C17.7063 29.2328 17.6829 29.3376 17.6869 29.4433C17.6909 29.5489 17.722 29.6517 17.7772 29.7419C17.8325 29.832 17.91 29.9063 18.0023 29.9578C18.0947 30.0092 18.1987 30.036 18.3044 30.0355H20.4104V32.513C20.4109 33.2854 20.7179 34.026 21.264 34.5721C21.8102 35.1183 22.5508 35.4253 23.3232 35.4257H24.7959V39.3055C24.7916 39.3891 24.8043 39.4727 24.8334 39.5512C24.8624 39.6297 24.9071 39.7015 24.9647 39.7622C25.0223 39.8228 25.0917 39.8712 25.1686 39.9042C25.2455 39.9372 25.3283 39.9542 25.412 39.9542C25.4957 39.9542 25.5785 39.9372 25.6554 39.9042C25.7323 39.8712 25.8017 39.8228 25.8593 39.7622C25.9169 39.7015 25.9616 39.6297 25.9906 39.5512C26.0197 39.4727 26.0324 39.3891 26.0281 39.3055V35.4257H26.9117C27.0696 35.4176 27.2184 35.3491 27.3273 35.2345C27.4362 35.1198 27.4969 34.9677 27.4969 34.8096C27.4969 34.6515 27.4362 34.4994 27.3273 34.3848C27.2184 34.2701 27.0696 34.2017 26.9117 34.1935H23.3117C22.8661 34.1931 22.4389 34.0159 22.1239 33.7008C21.8088 33.3858 21.6316 32.9586 21.6312 32.513V29.4202C21.6321 29.2583 21.5693 29.1025 21.4563 28.9865C21.3433 28.8704 21.1893 28.8035 21.0274 28.8001H19.3092L21.5739 24.3622C21.6179 24.2755 21.6409 24.1797 21.641 24.0824V22.8584C21.641 21.0109 22.3577 19.2829 23.6046 18.1129C24.8925 16.9135 26.6221 16.3129 28.7461 16.3129C35.9919 16.3129 36.0754 23.4033 36.0754 23.4753C36.0754 27.9851 33.4179 32.2741 33.3918 32.3117C33.3299 32.4096 33.297 32.5231 33.2968 32.639V39.3055C33.2925 39.3891 33.3053 39.4727 33.3343 39.5512C33.3633 39.6297 33.408 39.7015 33.4656 39.7622C33.5233 39.8228 33.5926 39.8712 33.6695 39.9042C33.7464 39.9372 33.8293 39.9542 33.9129 39.9542C33.9966 39.9542 34.0794 39.9372 34.1563 39.9042C34.2332 39.8712 34.3026 39.8228 34.3603 39.7622C34.4179 39.7015 34.4626 39.6297 34.4916 39.5512C34.5206 39.4727 34.5333 39.3891 34.529 39.3055V32.8157C35.0347 31.9664 37.3109 27.9066 37.3109 23.4737C37.3092 20.5691 35.5239 15.0791 28.751 15.0791Z" fill="#9DCC3B"/>
<path d="M28.661 23.5999C28.5801 23.5996 28.4999 23.6154 28.425 23.6462C28.3502 23.677 28.2822 23.7223 28.2249 23.7795C28.1676 23.8366 28.1221 23.9045 28.0911 23.9793C28.0601 24.0541 28.0441 24.1342 28.0441 24.2151V27.8151C28.0398 27.8987 28.0525 27.9823 28.0815 28.0608C28.1106 28.1393 28.1552 28.2111 28.2129 28.2717C28.2705 28.3324 28.3399 28.3807 28.4168 28.4138C28.4937 28.4468 28.5765 28.4638 28.6602 28.4638C28.7439 28.4638 28.8267 28.4468 28.9036 28.4138C28.9805 28.3807 29.0499 28.3324 29.1075 28.2717C29.1651 28.2111 29.2098 28.1393 29.2388 28.0608C29.2678 27.9823 29.2806 27.8987 29.2763 27.8151V24.2184C29.2767 24.1373 29.2611 24.057 29.2304 23.9819C29.1997 23.9069 29.1544 23.8387 29.0972 23.7812C29.0401 23.7237 28.9721 23.6781 28.8972 23.647C28.8224 23.6159 28.7421 23.5999 28.661 23.5999Z" fill="#9DCC3B"/>
<path d="M28.661 18.0459C28.5801 18.0457 28.4999 18.0614 28.425 18.0923C28.3502 18.1231 28.2822 18.1684 28.2249 18.2255C28.1676 18.2827 28.1221 18.3506 28.0911 18.4253C28.0601 18.5001 28.0441 18.5802 28.0441 18.6612V22.2612C28.0398 22.3448 28.0525 22.4283 28.0815 22.5068C28.1106 22.5853 28.1552 22.6571 28.2129 22.7178C28.2705 22.7785 28.3399 22.8268 28.4168 22.8598C28.4937 22.8928 28.5765 22.9099 28.6602 22.9099C28.7439 22.9099 28.8267 22.8928 28.9036 22.8598C28.9805 22.8268 29.0499 22.7785 29.1075 22.7178C29.1651 22.6571 29.2098 22.5853 29.2388 22.5068C29.2678 22.4283 29.2806 22.3448 29.2763 22.2612V18.6546C29.2746 18.4926 29.209 18.3378 29.0938 18.2238C28.9786 18.1098 28.8231 18.0459 28.661 18.0459Z" fill="#9DCC3B"/>
<path d="M25.3637 27.0853C25.4445 27.0855 25.5246 27.0696 25.5993 27.0387C25.674 27.0078 25.7418 26.9625 25.799 26.9053L27.4697 25.2362C27.5807 25.1196 27.6418 24.9642 27.6398 24.8032C27.6379 24.6422 27.573 24.4884 27.4592 24.3745C27.3453 24.2607 27.1915 24.1959 27.0305 24.1939C26.8695 24.1919 26.7141 24.253 26.5975 24.364L24.9284 26.0331C24.8425 26.1194 24.7841 26.2291 24.7604 26.3486C24.7368 26.468 24.749 26.5917 24.7955 26.7042C24.842 26.8167 24.9208 26.9129 25.0219 26.9807C25.123 27.0486 25.2419 27.0849 25.3637 27.0853Z" fill="#9DCC3B"/>
<path d="M27.0279 22.2907C27.1498 22.2907 27.2689 22.2545 27.3703 22.1869C27.4716 22.1192 27.5506 22.023 27.5974 21.9104C27.6441 21.7978 27.6565 21.674 27.6329 21.5544C27.6093 21.4348 27.5508 21.3249 27.4648 21.2386L25.7941 19.5695C25.6786 19.454 25.5221 19.3892 25.3588 19.3892C25.1955 19.3892 25.039 19.454 24.9235 19.5695C24.8081 19.6849 24.7432 19.8415 24.7432 20.0047C24.7432 20.168 24.8081 20.3246 24.9235 20.44L26.5926 22.1091C26.6496 22.1666 26.7174 22.2122 26.7921 22.2434C26.8668 22.2746 26.9469 22.2907 27.0279 22.2907Z" fill="#9DCC3B"/>
<path d="M23.3575 23.2365C23.3575 23.3175 23.3735 23.3977 23.4045 23.4725C23.4355 23.5474 23.4809 23.6154 23.5382 23.6727C23.5955 23.73 23.6635 23.7754 23.7384 23.8064C23.8132 23.8374 23.8934 23.8534 23.9745 23.8534H27.6219C27.7055 23.8577 27.7891 23.8449 27.8676 23.8159C27.9461 23.7869 28.0178 23.7422 28.0785 23.6846C28.1392 23.6269 28.1875 23.5576 28.2205 23.4807C28.2536 23.4038 28.2706 23.321 28.2706 23.2373C28.2706 23.1536 28.2536 23.0708 28.2205 22.9939C28.1875 22.917 28.1392 22.8476 28.0785 22.79C28.0178 22.7323 27.9461 22.6876 27.8676 22.6586C27.7891 22.6296 27.7055 22.6169 27.6219 22.6212H23.9745C23.8935 22.621 23.8133 22.6367 23.7385 22.6675C23.6637 22.6984 23.5956 22.7437 23.5383 22.8008C23.481 22.858 23.4356 22.9259 23.4045 23.0006C23.3735 23.0754 23.3575 23.1555 23.3575 23.2365Z" fill="#9DCC3B"/>
<path d="M30.7277 24.364C30.6102 24.2579 30.4565 24.201 30.2982 24.205C30.14 24.2091 29.9893 24.2739 29.8775 24.3859C29.7656 24.498 29.7012 24.6487 29.6974 24.807C29.6936 24.9653 29.7508 25.1189 29.8572 25.2362L31.5262 26.9053C31.5824 26.9672 31.6506 27.0171 31.7266 27.0518C31.8026 27.0866 31.8849 27.1056 31.9685 27.1076C32.052 27.1096 32.1351 27.0946 32.2127 27.0635C32.2903 27.0324 32.3608 26.9858 32.4198 26.9267C32.4789 26.8675 32.5253 26.7969 32.5563 26.7193C32.5872 26.6416 32.6021 26.5585 32.5999 26.4749C32.5978 26.3914 32.5786 26.3091 32.5437 26.2332C32.5088 26.1572 32.4588 26.0891 32.3968 26.0331L30.7277 24.364Z" fill="#9DCC3B"/>
<path d="M30.2924 22.2907C30.3734 22.2908 30.4536 22.2748 30.5283 22.2437C30.6031 22.2125 30.6708 22.1667 30.7277 22.1091L32.3968 20.44C32.454 20.3828 32.4993 20.315 32.5303 20.2403C32.5612 20.1656 32.5771 20.0856 32.5771 20.0047C32.5771 19.9239 32.5612 19.8438 32.5303 19.7692C32.4993 19.6945 32.454 19.6266 32.3968 19.5695C32.3397 19.5123 32.2718 19.467 32.1971 19.436C32.1224 19.4051 32.0424 19.3892 31.9615 19.3892C31.8807 19.3892 31.8007 19.4051 31.726 19.436C31.6513 19.467 31.5834 19.5123 31.5263 19.5695L29.8572 21.2386C29.7713 21.3248 29.7128 21.4346 29.6892 21.554C29.6655 21.6734 29.6777 21.7972 29.7243 21.9097C29.7708 22.0221 29.8496 22.1184 29.9507 22.1862C30.0518 22.254 30.1707 22.2904 30.2924 22.2907Z" fill="#9DCC3B"/>
<path d="M29.0832 23.2364C29.083 23.3173 29.0987 23.3975 29.1296 23.4723C29.1604 23.5472 29.2057 23.6152 29.2628 23.6725C29.32 23.7298 29.3879 23.7753 29.4626 23.8063C29.5374 23.8373 29.6175 23.8533 29.6985 23.8533H33.3476C33.5055 23.8451 33.6542 23.7767 33.7631 23.662C33.872 23.5474 33.9327 23.3953 33.9327 23.2372C33.9327 23.0791 33.872 22.927 33.7631 22.8123C33.6542 22.6977 33.5055 22.6292 33.3476 22.6211H29.6985C29.5353 22.6211 29.3788 22.6859 29.2634 22.8013C29.148 22.9167 29.0832 23.0732 29.0832 23.2364Z" fill="#9DCC3B"/>
</g>
<defs>
<linearGradient id="paint0_linear_814_48595" x1="8.05421" y1="8.05421" x2="46.9458" y2="46.9458" gradientUnits="userSpaceOnUse">
<stop stop-color="white"/>
<stop offset="1" stop-color="white" stop-opacity="0"/>
</linearGradient>
<linearGradient id="paint1_linear_814_48595" x1="8.71367" y1="8.7138" x2="46.2863" y2="46.2865" gradientUnits="userSpaceOnUse">
<stop offset="0.09" stop-color="white"/>
<stop offset="0.56" stop-color="#EDEDED"/>
<stop offset="1" stop-color="#D9D9D9"/>
</linearGradient>
<clipPath id="clip0_814_48595">
<rect width="55" height="55" fill="white"/>
</clipPath>
</defs>
</svg>
