<svg width="56" height="55" viewBox="0 0 56 55" fill="none" xmlns="http://www.w3.org/2000/svg">
<g clip-path="url(#clip0_814_48576)">
<g style="mix-blend-mode:multiply" opacity="0.8">
<path opacity="0.7" d="M53.0877 37.9398C58.8469 24.4575 52.3874 8.94264 38.66 3.28629C24.9326 -2.37006 9.13562 3.97409 3.37643 17.4564C-2.38276 30.9386 4.07674 46.4535 17.8041 52.1099C31.5315 57.7662 47.3285 51.4221 53.0877 37.9398Z" fill="white"/>
</g>
<path d="M56 27.5008C56 32.94 54.3577 38.2571 51.2809 42.7796C48.204 47.3021 43.8308 50.827 38.7142 52.9084C33.5976 54.9898 27.9675 55.5344 22.5358 54.4731C17.1042 53.4118 12.1149 50.7925 8.19897 46.9463C4.28305 43.1 1.61636 38.1997 0.536129 32.865C-0.544102 27.5302 0.0106461 22.0007 2.13022 16.9756C4.24979 11.9505 7.83899 7.65556 12.4439 4.63393C17.0489 1.6123 22.4627 -0.000323599 28.0008 4.87066e-08C35.4268 0.000434024 42.5485 2.89802 47.7993 8.05538C53.0501 13.2127 56 20.2074 56 27.5008Z" fill="url(#paint0_linear_814_48576)"/>
<path d="M55.0503 27.5008C55.0503 32.7556 53.4637 37.8923 50.4912 42.2614C47.5187 46.6306 43.2938 50.0359 38.3508 52.0467C33.4077 54.0575 27.9686 54.5836 22.7211 53.5583C17.4737 52.533 12.6536 50.0025 8.87052 46.2867C5.08741 42.5709 2.51117 37.8368 1.46759 32.683C0.424001 27.5292 0.959942 22.1872 3.00763 17.3325C5.05533 12.4779 8.5228 8.32862 12.9716 5.40947C17.4203 2.49033 22.6505 0.932416 28.0008 0.932739C35.1748 0.933607 42.0547 3.73307 47.1273 8.71541C52.1999 13.6978 55.0499 20.4549 55.0503 27.5008Z" fill="url(#paint1_linear_814_48576)"/>
<path d="M40.0685 35.3619H38.1991V24.0251C38.1994 23.9548 38.1854 23.8851 38.1581 23.8201C38.1308 23.755 38.0907 23.696 38.04 23.6462C37.9894 23.5965 37.9293 23.5571 37.8631 23.5303C37.7969 23.5035 37.7259 23.4898 37.6543 23.49H34.472C34.4005 23.49 34.3296 23.5038 34.2635 23.5307C34.1974 23.5576 34.1374 23.597 34.0868 23.6467C34.0362 23.6964 33.996 23.7554 33.9687 23.8203C33.9413 23.8852 33.9272 23.9548 33.9272 24.0251V35.3619H32.8026V27.4091C32.8028 27.3387 32.7889 27.2689 32.7616 27.2038C32.7343 27.1387 32.6942 27.0795 32.6436 27.0297C32.593 26.9798 32.5328 26.9402 32.4666 26.9133C32.4004 26.8863 32.3294 26.8724 32.2577 26.8724H29.0771C28.9322 26.8724 28.7932 26.9289 28.6907 27.0296C28.5882 27.1302 28.5306 27.2667 28.5306 27.4091V35.3619H27.461V25.6484C27.461 25.506 27.4034 25.3695 27.3009 25.2688C27.1984 25.1682 27.0594 25.1116 26.9145 25.1116H23.7339C23.5889 25.1116 23.4499 25.1682 23.3474 25.2688C23.245 25.3695 23.1874 25.506 23.1874 25.6484V35.3619H22.1694V29.2009C22.1696 29.1306 22.1557 29.0609 22.1284 28.9959C22.1011 28.9309 22.0609 28.8718 22.0103 28.8221C21.9597 28.7723 21.8995 28.7329 21.8333 28.7061C21.7671 28.6793 21.6962 28.6656 21.6246 28.6658H18.4439C18.3722 28.6656 18.3012 28.6793 18.2349 28.7061C18.1686 28.7329 18.1084 28.7723 18.0576 28.822C18.0068 28.8717 17.9666 28.9307 17.9391 28.9958C17.9116 29.0608 17.8974 29.1305 17.8974 29.2009V35.3619H15.9314C15.7869 35.3619 15.6483 35.4182 15.5462 35.5186C15.444 35.6189 15.3866 35.755 15.3866 35.8969C15.3866 36.0389 15.444 36.175 15.5462 36.2753C15.6483 36.3757 15.7869 36.432 15.9314 36.432H40.0685C40.213 36.432 40.3516 36.3757 40.4538 36.2753C40.5559 36.175 40.6133 36.0389 40.6133 35.8969C40.6133 35.755 40.5559 35.6189 40.4538 35.5186C40.3516 35.4182 40.213 35.3619 40.0685 35.3619ZM35.0185 24.5618H37.1078V35.3619H35.0185V24.5618ZM29.6219 27.9442H31.7129V35.3619H29.6219V27.9442ZM24.2787 26.1818H26.3697V35.3619H24.2787V26.1818ZM18.9937 29.7376H21.0831V35.3619H18.9937V29.7376Z" fill="#5E8ECA"/>
<path d="M20.0334 27.833C20.3514 27.837 20.6655 27.7642 20.9481 27.621C21.2308 27.4778 21.4732 27.2687 21.6542 27.0119C21.8352 26.755 21.9492 26.4585 21.9862 26.1483C22.0231 25.8381 21.9819 25.5237 21.8662 25.2328L24.1587 23.5277C24.5626 23.8302 25.0717 23.9638 25.5753 23.8995C26.0789 23.8351 26.5363 23.578 26.8479 23.1841L28.7306 23.9384C28.7016 24.198 28.7269 24.4607 28.8049 24.7103C28.883 24.9599 29.0121 25.1913 29.1844 25.3902C29.3566 25.589 29.5685 25.7513 29.8068 25.8669C30.0452 25.9826 30.3051 26.0492 30.5707 26.0627C30.8362 26.0762 31.1017 26.0363 31.351 25.9455C31.6003 25.8546 31.828 25.7147 32.0203 25.5344C32.2126 25.354 32.3653 25.137 32.4692 24.8966C32.573 24.6562 32.6258 24.3976 32.6243 24.1364C32.6218 23.9318 32.5852 23.7289 32.516 23.5359L34.8336 21.9699C35.1787 22.2528 35.6136 22.4085 36.0632 22.4101C36.4859 22.417 36.8999 22.2915 37.2451 22.0517C37.5903 21.8119 37.8487 21.4704 37.9829 21.0766C38.1171 20.6828 38.12 20.2573 37.9913 19.8618C37.8626 19.4662 37.609 19.1213 37.2672 18.8769C36.9253 18.6325 36.5131 18.5014 36.0903 18.5027C35.6676 18.504 35.2562 18.6375 34.9159 18.8839C34.5756 19.1303 34.324 19.4768 34.1978 19.8731C34.0716 20.2694 34.0772 20.6949 34.2138 21.0879L31.8979 22.6539C31.6996 22.4907 31.4698 22.3685 31.2222 22.2947C30.9747 22.2209 30.7145 22.197 30.4573 22.2243C30.2001 22.2517 29.9512 22.3298 29.7255 22.4539C29.4998 22.5781 29.3019 22.7457 29.1438 22.9468L27.2594 22.1908C27.2708 22.1258 27.278 22.0603 27.281 21.9944C27.2662 21.4944 27.0535 21.0198 26.6881 20.6712C26.3228 20.3227 25.8335 20.1278 25.3242 20.1278C24.8149 20.1278 24.3256 20.3227 23.9602 20.6712C23.5949 21.0198 23.3822 21.4944 23.3673 21.9944C23.3686 22.2269 23.4138 22.4572 23.5006 22.6735L21.1997 24.3819C20.8642 24.1315 20.4548 23.9954 20.0334 23.9941C19.7765 23.9941 19.5222 24.0438 19.2849 24.1403C19.0476 24.2368 18.8319 24.3784 18.6503 24.5567C18.4687 24.7351 18.3246 24.9469 18.2263 25.18C18.128 25.4131 18.0774 25.6629 18.0774 25.9152C18.0774 26.1674 18.128 26.4173 18.2263 26.6503C18.3246 26.8834 18.4687 27.0952 18.6503 27.2736C18.8319 27.452 19.0476 27.5935 19.2849 27.69C19.5222 27.7866 19.7765 27.8363 20.0334 27.8363V27.833ZM36.0632 19.6364C36.2342 19.6364 36.4014 19.6862 36.5436 19.7795C36.6858 19.8729 36.7966 20.0055 36.8621 20.1607C36.9275 20.3159 36.9446 20.4866 36.9113 20.6514C36.8779 20.8161 36.7956 20.9674 36.6746 21.0862C36.5537 21.205 36.3996 21.2859 36.2319 21.3186C36.0641 21.3514 35.8903 21.3346 35.7323 21.2703C35.5743 21.206 35.4392 21.0972 35.3442 20.9575C35.2492 20.8179 35.1985 20.6537 35.1985 20.4857C35.1989 20.2606 35.2901 20.0448 35.4522 19.8856C35.6143 19.7265 35.834 19.6368 36.0632 19.6364ZM30.6666 23.2855C30.838 23.2852 31.0057 23.3348 31.1484 23.4281C31.2911 23.5214 31.4024 23.6542 31.4682 23.8097C31.5341 23.9651 31.5514 24.1363 31.5182 24.3014C31.485 24.4666 31.4026 24.6184 31.2815 24.7375C31.1604 24.8567 31.006 24.9379 30.8379 24.9709C30.6698 25.0038 30.4955 24.9871 30.3371 24.9227C30.1787 24.8584 30.0433 24.7493 29.948 24.6093C29.8527 24.4694 29.8019 24.3048 29.8019 24.1364C29.8019 23.911 29.8929 23.6949 30.0551 23.5353C30.2172 23.3758 30.4371 23.286 30.6666 23.2855ZM25.325 21.1451C25.496 21.1455 25.663 21.1956 25.805 21.2891C25.947 21.3826 26.0575 21.5153 26.1227 21.6706C26.1879 21.8258 26.2048 21.9965 26.1713 22.1611C26.1377 22.3257 26.0552 22.4769 25.9342 22.5955C25.8132 22.7141 25.6591 22.7949 25.4914 22.8275C25.3237 22.8601 25.15 22.8432 24.9921 22.7789C24.8341 22.7146 24.6992 22.6057 24.6043 22.4661C24.5093 22.3265 24.4586 22.1623 24.4586 21.9944C24.4591 21.769 24.5506 21.553 24.713 21.3938C24.8754 21.2346 25.0955 21.1451 25.325 21.1451ZM20.0334 25.0626C20.2049 25.0623 20.3727 25.112 20.5154 25.2053C20.6581 25.2987 20.7694 25.4316 20.8352 25.5871C20.901 25.7427 20.9183 25.9139 20.8849 26.0791C20.8515 26.2443 20.769 26.3961 20.6477 26.5152C20.5264 26.6343 20.3719 26.7154 20.2037 26.7482C20.0355 26.7809 19.8611 26.764 19.7028 26.6994C19.5444 26.6347 19.4091 26.5254 19.314 26.3852C19.2189 26.2451 19.1684 26.0803 19.1687 25.9119C19.1691 25.6868 19.2604 25.471 19.4225 25.3118C19.5845 25.1527 19.8042 25.063 20.0334 25.0626Z" fill="#5E8ECA"/>
</g>
<defs>
<linearGradient id="paint0_linear_814_48576" x1="8.20062" y1="8.05421" x2="47.0859" y2="47.6465" gradientUnits="userSpaceOnUse">
<stop stop-color="white"/>
<stop offset="1" stop-color="white" stop-opacity="0"/>
</linearGradient>
<linearGradient id="paint1_linear_814_48576" x1="8.87208" y1="8.71367" x2="46.4387" y2="46.9633" gradientUnits="userSpaceOnUse">
<stop offset="0.09" stop-color="white"/>
<stop offset="0.56" stop-color="#EDEDED"/>
<stop offset="1" stop-color="#D9D9D9"/>
</linearGradient>
<clipPath id="clip0_814_48576">
<rect width="56" height="55" fill="white"/>
</clipPath>
</defs>
</svg>
