<svg width="56" height="55" viewBox="0 0 56 55" fill="none" xmlns="http://www.w3.org/2000/svg">
<g clip-path="url(#clip0_814_48612)">
<g style="mix-blend-mode:multiply" opacity="0.8">
<path opacity="0.7" d="M52.8869 37.3688C58.4852 23.8213 51.8414 8.38164 38.0476 2.88333C24.2538 -2.61498 8.53345 3.91017 2.93517 17.4577C-2.66311 31.0051 3.98067 46.4448 17.7745 51.9431C31.5683 57.4414 47.2887 50.9163 52.8869 37.3688Z" fill="white"/>
</g>
<path d="M56 27.5008C56 32.94 54.3578 38.2571 51.2809 42.7796C48.2041 47.3021 43.8308 50.827 38.7143 52.9084C33.5977 54.9898 27.9676 55.5344 22.5359 54.4731C17.1042 53.4118 12.115 50.7925 8.19903 46.9463C4.28311 43.1 1.61642 38.1997 0.53619 32.865C-0.544041 27.5302 0.0107071 22.0007 2.13028 16.9756C4.24985 11.9505 7.83905 7.65556 12.444 4.63393C17.0489 1.6123 22.4628 -0.000323599 28.0009 4.87066e-08C35.4269 0.000434024 42.5486 2.89802 47.7994 8.05538C53.0502 13.2127 56 20.2074 56 27.5008Z" fill="url(#paint0_linear_814_48612)"/>
<path d="M55.0504 27.5007C55.0504 32.7554 53.4638 37.8922 50.4913 42.2613C47.5188 46.6305 43.2939 50.0357 38.3509 52.0466C33.4078 54.0574 27.9686 54.5834 22.7212 53.5582C17.4737 52.5329 12.6537 50.0024 8.87058 46.2866C5.08748 42.5708 2.51123 37.8367 1.46765 32.6829C0.424062 27.5291 0.960003 22.1871 3.0077 17.3324C5.05539 12.4777 8.52286 8.32849 12.9716 5.40935C17.4204 2.49021 22.6506 0.932294 28.0009 0.932617C35.1749 0.933485 42.0547 3.73295 47.1274 8.71529C52.2 13.6976 55.0499 20.4548 55.0504 27.5007Z" fill="url(#paint1_linear_814_48612)"/>
<path d="M36.0066 27.5204C36.0066 25.9649 35.5369 24.4443 34.657 23.151C33.777 21.8577 32.5264 20.8497 31.0631 20.2545C29.5999 19.6593 27.9898 19.5037 26.4364 19.8072C24.8831 20.1108 23.4563 20.86 22.3365 21.96C21.2168 23.06 20.4543 24.4615 20.1455 25.9871C19.8367 27.5128 19.9955 29.0941 20.6018 30.5311C21.2081 31.9681 22.2347 33.1962 23.5518 34.0602C24.8688 34.9241 26.4171 35.3851 28.0009 35.3848C30.1237 35.3826 32.159 34.5533 33.6599 33.0789C35.1608 31.6044 36.0048 29.6053 36.0066 27.5204ZM21.4214 27.5204C21.4214 26.2423 21.8072 24.993 22.5302 23.9303C23.2532 22.8676 24.2807 22.0394 25.483 21.5503C26.6852 21.0612 28.0082 20.9332 29.2845 21.1825C30.5608 21.4319 31.7331 22.0473 32.6533 22.9511C33.5734 23.8548 34.2001 25.0062 34.454 26.2597C34.7078 27.5132 34.5775 28.8125 34.0795 29.9933C33.5816 31.1741 32.7382 32.1833 31.6563 32.8934C30.5743 33.6034 29.3022 33.9824 28.0009 33.9824C26.2564 33.9807 24.5839 33.2993 23.3504 32.0878C22.1169 30.8763 21.4231 29.2337 21.4214 27.5204Z" fill="#5DBEA9"/>
<path d="M26.6463 17.1672C26.5284 17.304 26.4689 17.4803 26.4801 17.6592C26.4914 17.8381 26.5725 18.0058 26.7066 18.1274C26.8407 18.249 27.0174 18.315 27.1999 18.3117C27.3824 18.3084 27.5565 18.2361 27.686 18.1097L28.9556 16.8792C29.0221 16.8144 29.0749 16.7373 29.111 16.6523C29.147 16.5674 29.1656 16.4762 29.1656 16.3842C29.1656 16.2921 29.147 16.201 29.111 16.1161C29.0749 16.0311 29.0221 15.954 28.9556 15.8892L27.7026 14.6423C27.6383 14.5714 27.5601 14.5141 27.4725 14.4738C27.385 14.4335 27.29 14.4112 27.1934 14.4081C27.0968 14.405 27.0005 14.4212 26.9105 14.4558C26.8205 14.4904 26.7385 14.5425 26.6697 14.6092C26.6008 14.6758 26.5464 14.7555 26.5099 14.8434C26.4734 14.9313 26.4554 15.0256 26.4571 15.1205C26.4589 15.2154 26.4802 15.309 26.5199 15.3956C26.5596 15.4822 26.6168 15.5599 26.688 15.6241L26.7929 15.7272C23.8172 16.0229 21.059 17.3922 19.052 19.5701C17.045 21.7481 15.9319 24.5797 15.9282 27.5172C15.937 27.6973 16.0161 27.8672 16.149 27.9916C16.2819 28.116 16.4585 28.1853 16.6421 28.1853C16.8257 28.1853 17.0022 28.116 17.1352 27.9916C17.2681 27.8672 17.3472 27.6973 17.356 27.5172C17.3613 24.9784 18.3068 22.5281 20.0163 20.6236C21.7258 18.7192 24.0824 17.4906 26.6463 17.1672Z" fill="#5DBEA9"/>
<path d="M40.0652 27.5204C40.0564 27.3403 39.9773 27.1705 39.8444 27.0461C39.7114 26.9217 39.5349 26.8523 39.3513 26.8523C39.1677 26.8523 38.9911 26.9217 38.8582 27.0461C38.7253 27.1705 38.6462 27.3403 38.6374 27.5204C38.6332 29.9868 37.7415 32.3723 36.1198 34.2555C34.4982 36.1386 32.2509 37.3982 29.7753 37.8115C29.8872 37.6701 29.9392 37.4916 29.9205 37.3134C29.9018 37.1352 29.8138 36.971 29.6748 36.8549C29.5358 36.7389 29.3566 36.68 29.1745 36.6905C28.9923 36.7011 28.8214 36.7803 28.6973 36.9115L27.4793 38.1912C27.4606 38.2175 27.4433 38.2448 27.4277 38.273C27.3927 38.3163 27.363 38.3635 27.3394 38.4137C27.3231 38.4637 27.3125 38.5153 27.3077 38.5675C27.298 38.6008 27.2907 38.6347 27.2861 38.669C27.2861 38.669 27.2861 38.6772 27.2861 38.6805C27.2915 38.7361 27.3032 38.791 27.3211 38.8441C27.3255 38.8775 27.3333 38.9104 27.3444 38.9423C27.3615 38.9712 27.3804 38.9991 27.401 39.0257C27.4291 39.0759 27.4632 39.1226 27.5027 39.1648C27.5027 39.1648 27.5027 39.1648 27.5027 39.1746L28.8056 40.3708C28.9439 40.4974 29.1275 40.565 29.3165 40.5588C29.5054 40.5527 29.6841 40.4733 29.8136 40.3381C29.9425 40.202 30.0114 40.0213 30.0052 39.8355C29.9989 39.6497 29.9181 39.4739 29.7803 39.3465L29.6586 39.2368C32.5391 38.8423 35.1778 37.4399 37.0897 35.2873C39.0016 33.1348 40.0582 30.3768 40.0652 27.5204Z" fill="#5DBEA9"/>
<path d="M33.7306 28.2207C33.9198 28.2207 34.1011 28.1469 34.2349 28.0156C34.3686 27.8842 34.4437 27.7061 34.4437 27.5203C34.4437 27.3346 34.3686 27.1564 34.2349 27.0251C34.1011 26.8937 33.9198 26.82 33.7306 26.82H28.7139V23.0563C28.7051 22.8762 28.626 22.7063 28.4931 22.582C28.3602 22.4576 28.1836 22.3882 28 22.3882C27.8164 22.3882 27.6399 22.4576 27.5069 22.582C27.374 22.7063 27.2949 22.8762 27.2861 23.0563V27.5252C27.2861 27.6173 27.3046 27.7085 27.3405 27.7936C27.3765 27.8787 27.4291 27.956 27.4955 28.021C27.5619 28.0861 27.6407 28.1377 27.7274 28.1728C27.8141 28.2079 27.9071 28.2258 28.0008 28.2256L33.7306 28.2207Z" fill="#5DBEA9"/>
</g>
<defs>
<linearGradient id="paint0_linear_814_48612" x1="8.20068" y1="8.05421" x2="47.086" y2="47.6465" gradientUnits="userSpaceOnUse">
<stop stop-color="white"/>
<stop offset="1" stop-color="white" stop-opacity="0"/>
</linearGradient>
<linearGradient id="paint1_linear_814_48612" x1="8.87214" y1="8.71355" x2="46.4387" y2="46.9632" gradientUnits="userSpaceOnUse">
<stop offset="0.09" stop-color="white"/>
<stop offset="0.56" stop-color="#EDEDED"/>
<stop offset="1" stop-color="#D9D9D9"/>
</linearGradient>
<clipPath id="clip0_814_48612">
<rect width="56" height="55" fill="white"/>
</clipPath>
</defs>
</svg>
