<svg width="56" height="55" viewBox="0 0 56 55" fill="none" xmlns="http://www.w3.org/2000/svg">
<g clip-path="url(#clip0_814_48586)">
<g style="mix-blend-mode:multiply" opacity="0.8">
<path opacity="0.7" d="M52.8871 37.6571C58.4854 24.1096 51.8416 8.66997 38.0478 3.17166C24.254 -2.32665 8.53357 4.1985 2.93529 17.746C-2.66299 31.2935 3.98079 46.7331 17.7746 52.2314C31.5684 57.7298 47.2888 51.2046 52.8871 37.6571Z" fill="white"/>
</g>
<path d="M56 27.5008C56 32.94 54.3578 38.2571 51.2809 42.7796C48.2041 47.3021 43.8308 50.827 38.7143 52.9084C33.5977 54.9898 27.9676 55.5344 22.5359 54.4731C17.1042 53.4118 12.115 50.7925 8.19903 46.9463C4.28311 43.1 1.61642 38.1997 0.53619 32.865C-0.544041 27.5302 0.0107071 22.0007 2.13028 16.9756C4.24985 11.9505 7.83905 7.65556 12.444 4.63393C17.0489 1.6123 22.4628 -0.000323599 28.0009 4.87066e-08C35.4269 0.000434024 42.5486 2.89802 47.7994 8.05538C53.0502 13.2127 56 20.2074 56 27.5008Z" fill="url(#paint0_linear_814_48586)"/>
<path d="M55.0503 27.5008C55.0503 32.7556 53.4637 37.8923 50.4912 42.2614C47.5187 46.6306 43.2938 50.0359 38.3508 52.0467C33.4077 54.0575 27.9686 54.5836 22.7211 53.5583C17.4737 52.533 12.6536 50.0025 8.87052 46.2867C5.08741 42.5709 2.51117 37.8368 1.46759 32.683C0.424001 27.5292 0.959942 22.1872 3.00763 17.3325C5.05533 12.4779 8.5228 8.32862 12.9716 5.40947C17.4203 2.49033 22.6505 0.932416 28.0008 0.932739C35.1748 0.933607 42.0547 3.73307 47.1273 8.71541C52.1999 13.6978 55.0499 20.4549 55.0503 27.5008Z" fill="url(#paint1_linear_814_48586)"/>
<path d="M38.9256 27.1097C39.4405 25.8382 40.7834 21.6655 37.696 18.6349C34.1455 15.1478 29.2904 16.4634 29.0872 16.5273C28.9869 16.5556 28.8953 16.6079 28.8206 16.6794L28.0225 17.4469C25.9915 16.4144 21.9928 15.5651 18.8589 18.6414C15.7732 21.6704 16.9528 25.5338 17.5376 26.9427L17.0195 27.45C16.6933 27.7708 16.4699 28.1784 16.3769 28.6225C16.2838 29.0665 16.3251 29.5276 16.4957 29.9489C16.6663 30.3701 16.9588 30.7331 17.337 30.9931C17.7151 31.253 18.1625 31.3985 18.6239 31.4117H18.6939C18.8409 31.4113 18.9876 31.3976 19.1321 31.3708C19.1071 31.6831 19.1471 31.9971 19.2496 32.2937C19.3522 32.5904 19.5151 32.8634 19.7284 33.0962C19.9418 33.3291 20.2012 33.5168 20.4908 33.6481C20.7804 33.7793 21.0942 33.8513 21.413 33.8597H21.4797C21.6285 33.8589 21.7769 33.8441 21.9229 33.8155C21.8971 34.1256 21.9356 34.4376 22.0362 34.7326C22.1367 35.0277 22.2971 35.2996 22.5077 35.5321C22.7222 35.7674 22.9831 35.9575 23.2747 36.0909C23.5662 36.2242 23.8823 36.298 24.2038 36.3077H24.2704C24.4186 36.3075 24.5665 36.2932 24.7119 36.2651C24.6862 36.5778 24.7258 36.8923 24.8281 37.1895C24.9304 37.4866 25.0934 37.7601 25.3071 37.9933C25.5208 38.2264 25.7806 38.4143 26.0708 38.5454C26.3609 38.6765 26.6752 38.748 26.9945 38.7557H27.0628C27.5245 38.757 27.9762 38.6238 28.3608 38.3728C28.7972 38.625 29.2923 38.763 29.7986 38.7737C30.0781 38.7754 30.3551 38.7215 30.6128 38.6152C30.8706 38.5089 31.1037 38.3524 31.2981 38.1551C31.5322 37.9324 31.7036 37.6539 31.7956 37.3468C31.8875 37.0396 31.897 36.7144 31.823 36.4026C32.1809 36.451 32.5454 36.4171 32.8878 36.3035C33.2301 36.1899 33.5409 35.9998 33.7956 35.7481C34.0536 35.4971 34.2455 35.1882 34.3546 34.848C34.4638 34.5079 34.4869 34.1468 34.4221 33.7959C35.1252 33.9022 35.9033 33.7959 36.5048 33.21C36.7451 32.9733 36.9202 32.6805 37.0138 32.3591C37.1073 32.0376 37.1162 31.6981 37.0396 31.3724C37.4196 31.4267 37.8075 31.3807 38.1636 31.2392C38.5196 31.0978 38.8309 30.8659 39.0656 30.5673C40.1536 29.2909 39.5571 27.8935 38.9256 27.1097ZM29.577 17.6727C30.3534 17.4976 34.0889 16.8365 36.8097 19.5071C39.0006 21.6589 38.4158 24.6698 37.9493 26.1197L31.3481 19.6364C31.2304 19.5212 31.071 19.4566 30.9049 19.4566C30.7388 19.4566 30.5794 19.5212 30.4617 19.6364L26.4197 23.6062C26.216 23.7959 25.9473 23.9039 25.6666 23.9089C25.4579 23.9077 25.2542 23.8456 25.0814 23.7304C24.9087 23.6153 24.7747 23.4523 24.6965 23.2622C24.6183 23.0721 24.5994 22.8634 24.6422 22.6628C24.685 22.4621 24.7876 22.2784 24.9369 22.1351L29.577 17.6727ZM18.6606 30.1729C18.4432 30.1674 18.2322 30.0992 18.054 29.9767C17.8758 29.8542 17.7382 29.6829 17.6585 29.4842C17.5787 29.2855 17.5603 29.0681 17.6054 28.8591C17.6506 28.6502 17.7574 28.4589 17.9125 28.3091L19.427 26.82C19.53 26.7189 19.6522 26.6387 19.7867 26.584C19.9212 26.5293 20.0653 26.5011 20.2109 26.5011C20.3565 26.5011 20.5007 26.5293 20.6352 26.584C20.7697 26.6387 20.8919 26.7189 20.9948 26.82C21.0978 26.9211 21.1794 27.0412 21.2351 27.1733C21.2909 27.3054 21.3195 27.4469 21.3195 27.5899C21.3195 27.7329 21.2909 27.8745 21.2351 28.0066C21.1794 28.1387 21.0978 28.2587 20.9948 28.3598L19.4803 29.8473C19.3739 29.9541 19.2461 30.0382 19.1051 30.0942C18.964 30.1502 18.8127 30.177 18.6606 30.1729ZM21.4497 32.6275C21.299 32.624 21.1507 32.5901 21.014 32.5279C20.8773 32.4657 20.7551 32.3765 20.6549 32.2659C20.4662 32.0584 20.3654 31.788 20.3732 31.5099C20.3809 31.2318 20.4966 30.9672 20.6966 30.7702L22.2128 29.2828C22.4205 29.0786 22.7022 28.9638 22.9961 28.9636C23.29 28.9635 23.5718 29.078 23.7798 29.2819C23.9877 29.4859 24.1045 29.7627 24.1047 30.0513C24.1049 30.3399 23.9883 30.6168 23.7806 30.8209L22.2644 32.31C22.1602 32.416 22.0338 32.4987 21.8941 32.5523C21.7544 32.606 21.6045 32.6294 21.4547 32.621L21.4497 32.6275ZM24.2388 35.082C24.0879 35.0786 23.9395 35.0446 23.8027 34.9821C23.6659 34.9196 23.5438 34.8299 23.444 34.7188C23.2543 34.5104 23.1535 34.2384 23.1625 33.959C23.1715 33.6796 23.2896 33.4144 23.4923 33.2182L25.0069 31.7291C25.2148 31.5249 25.4967 31.4102 25.7908 31.4102C26.0848 31.4102 26.3668 31.5249 26.5747 31.7291C26.7826 31.9333 26.8994 32.2103 26.8994 32.499C26.8994 32.7878 26.7826 33.0648 26.5747 33.269L25.0585 34.7564C24.9525 34.8617 24.8253 34.944 24.6849 34.9981C24.5446 35.0522 24.3944 35.0769 24.2438 35.0706L24.2388 35.082ZM27.0295 37.5366C26.813 37.5308 26.6031 37.4628 26.4255 37.341C26.2479 37.2192 26.1106 37.049 26.0305 36.8514C25.9504 36.6538 25.931 36.4375 25.9747 36.2292C26.0184 36.0209 26.1233 35.8297 26.2764 35.6793L27.7926 34.1919C27.8942 34.0857 28.0165 34.0006 28.1523 33.9417C28.288 33.8828 28.4344 33.8513 28.5828 33.849C28.7312 33.8468 28.8785 33.8738 29.016 33.9286C29.1536 33.9833 29.2785 34.0646 29.3834 34.1676C29.4884 34.2707 29.5711 34.3934 29.6269 34.5285C29.6826 34.6636 29.7101 34.8082 29.7078 34.954C29.7055 35.0997 29.6734 35.2435 29.6135 35.3768C29.5535 35.5101 29.4669 35.6302 29.3588 35.7301L27.8443 37.2191C27.7361 37.3191 27.6089 37.397 27.4699 37.4484C27.3309 37.4998 27.1829 37.5237 27.0345 37.5186L27.0295 37.5366ZM30.4151 37.2993C30.0819 37.6266 29.6753 37.5841 29.3538 37.4793L30.2468 36.6022C30.3335 36.5135 30.4132 36.4183 30.4851 36.3175C30.6333 36.617 30.705 37.0015 30.4201 37.2813L30.4151 37.2993ZM38.1042 29.7818C38.0287 29.8838 37.9327 29.9694 37.822 30.0333C37.7114 30.0972 37.5885 30.1381 37.4611 30.1533C36.9613 30.2024 36.3948 29.8408 36.2215 29.7017C36.1029 29.6051 35.9522 29.5548 35.7982 29.5602C35.6442 29.5656 35.4977 29.6265 35.3864 29.7311C35.2751 29.8358 35.2068 29.977 35.1946 30.1278C35.1824 30.2787 35.2271 30.4287 35.3201 30.5493C35.3301 30.5608 36.2182 31.7553 35.625 32.3362C34.9869 32.9646 33.6907 32.2479 33.6807 32.2413C33.5569 32.1693 33.4118 32.1412 33.2695 32.1616C33.1272 32.1821 32.9963 32.2499 32.8988 32.3538C32.8013 32.4576 32.743 32.5911 32.7337 32.7321C32.7244 32.8731 32.7646 33.0129 32.8476 33.1282C32.8476 33.1397 33.604 34.1951 32.9143 34.8726C32.1945 35.5811 30.9416 34.8006 30.9316 34.794C30.9124 34.4657 30.8218 34.1452 30.666 33.8542C30.5101 33.5631 30.2925 33.3082 30.028 33.1067C29.7634 32.9051 29.4579 32.7616 29.1321 32.6857C28.8063 32.6098 28.4677 32.6034 28.1392 32.6668C28.1392 32.6095 28.1558 32.5539 28.1558 32.4949C28.1554 32.1534 28.0782 31.8161 27.9298 31.5072C27.7814 31.1983 27.5655 30.9254 27.2974 30.7078C27.0292 30.4903 26.7156 30.3335 26.3787 30.2487C26.0418 30.1639 25.69 30.1531 25.3484 30.2171C25.379 29.8617 25.3251 29.5042 25.191 29.1727C25.057 28.8412 24.8464 28.5448 24.5758 28.3068C24.3053 28.0688 23.9822 27.8958 23.632 27.8014C23.2817 27.707 22.914 27.6937 22.5577 27.7626C22.5961 27.2906 22.486 26.8183 22.2422 26.4098C21.9984 26.0013 21.6327 25.6762 21.1946 25.4786C20.7564 25.2809 20.2671 25.2203 19.7927 25.3048C19.3183 25.3893 18.8818 25.6149 18.5423 25.9511L18.519 25.9724C18.0191 24.5275 17.4943 21.7178 19.7519 19.5005C22.4177 16.8824 25.635 17.7676 27.0595 18.3551L24.0605 21.24C23.729 21.5533 23.5005 21.9566 23.4041 22.3984C23.3078 22.8402 23.348 23.3001 23.5198 23.7192C23.6915 24.1383 23.9869 24.4975 24.3679 24.7505C24.749 25.0036 25.1983 25.139 25.6583 25.1395H25.6783C25.9815 25.1407 26.2819 25.0825 26.5619 24.9685C26.842 24.8544 27.0961 24.6867 27.3094 24.4751L30.9049 20.9455L37.7493 27.6677C37.806 27.7184 38.9306 28.8 38.1042 29.7818Z" fill="#4CB6CF"/>
</g>
<defs>
<linearGradient id="paint0_linear_814_48586" x1="8.20068" y1="8.05421" x2="47.086" y2="47.6465" gradientUnits="userSpaceOnUse">
<stop stop-color="white"/>
<stop offset="1" stop-color="white" stop-opacity="0"/>
</linearGradient>
<linearGradient id="paint1_linear_814_48586" x1="8.87208" y1="8.71367" x2="46.4387" y2="46.9633" gradientUnits="userSpaceOnUse">
<stop offset="0.09" stop-color="white"/>
<stop offset="0.56" stop-color="#EDEDED"/>
<stop offset="1" stop-color="#D9D9D9"/>
</linearGradient>
<clipPath id="clip0_814_48586">
<rect width="56" height="55" fill="white"/>
</clipPath>
</defs>
</svg>
