<svg width="24" height="30" viewBox="0 0 24 30" fill="none" xmlns="http://www.w3.org/2000/svg">
<circle cx="12" cy="15" r="11.5" fill="#CE9B25" stroke="#CE9B25"/>
<path d="M12.8408 8.20312L12.5508 17.0889H10.4414L10.1426 8.20312H12.8408ZM10.0723 19.8398C10.0723 19.4648 10.2012 19.1543 10.459 18.9082C10.7227 18.6562 11.0684 18.5303 11.4961 18.5303C11.9297 18.5303 12.2754 18.6562 12.5332 18.9082C12.791 19.1543 12.9199 19.4648 12.9199 19.8398C12.9199 20.2031 12.791 20.5107 12.5332 20.7627C12.2754 21.0146 11.9297 21.1406 11.4961 21.1406C11.0684 21.1406 10.7227 21.0146 10.459 20.7627C10.2012 20.5107 10.0723 20.2031 10.0723 19.8398Z" fill="white"/>
</svg>
