<svg xmlns:xlink="http://www.w3.org/1999/xlink" id="_x33_0" enable-background="new 0 0 62 62" height="30" viewBox="0 0 62 62" width="30" xmlns="http://www.w3.org/2000/svg"><g><g><g><path d="m16.29 19.29 1.71 1.71-3 3-1.71-1.71c-.18-.18-.29-.44-.29-.7 0-.71.29-1.36.76-1.83s1.12-.76 1.83-.76c.26 0 .52.11.7.29z" fill="#AAB2BD"></path></g><g><path d="m25.71 22.71-1.16-.26-6.55-1.45-3 3 1.45 6.55.26 1.16c.17.75.84 1.29 1.61 1.29.44 0 .85-.17 1.16-.48l1.64-1.64 3.75-3.75 1.65-1.65c.31-.31.48-.72.48-1.16 0-.77-.54-1.44-1.29-1.61z" fill="#CCD1D9"></path></g><g><path d="m24 33c-1.35 0-2.49-.89-2.87-2.11l-.01-.01 3.75-3.75c1.23.37 2.13 1.52 2.13 2.87 0 1.66-1.34 3-3 3z" fill="#FCD770"></path></g><g><path d="m17 47h-14l2-6h8.28c.43 0 .81.28.95.68l.88 2.66c-.07.21-.11.43-.11.66 0 .55.22 1.05.59 1.41.36.37.86.59 1.41.59z" fill="#CCD1D9"></path></g><g><path d="m15.11 44.34c.28-.78 1.02-1.34 1.89-1.34h8 .01c.08 2.23 1.9 4 4.15 4h-12.16c-.55 0-1.05-.22-1.41-.59-.37-.36-.59-.86-.59-1.41 0-.23.04-.45.11-.66z" fill="#AAB2BD"></path></g><g><path d="m3 51h30v10h-30z" fill="#CF9E76"></path></g><g><path d="m59 37v24h-4v-10-13.76-.24c0-1.1.9-2 2-2 .55 0 1.05.22 1.41.59.37.36.59.86.59 1.41z" fill="#D3A06C"></path></g><g><path d="m33 47h2v4h-2-30-1c-.55 0-1-.45-1-1v-2c0-.55.45-1 1-1h1 14 12.16z" fill="#D3A06C"></path></g><g><path d="m33 15h-1c-.27 0-.54.04-.79.11l-4.21-2.11 2-3-4-1c3.78-5.04 9.7-8 16-8h9.32c2.95 0 5.62 1.2 7.55 3.13s3.13 4.6 3.13 7.55c0 .88-.11 1.75-.32 2.6l-.43 1.73-.01.01c-.54-.63-1.34-1.02-2.24-1.02h-1v-1c0-1.38-.56-2.63-1.46-3.54-.91-.9-2.16-1.46-3.54-1.46-.66 0-1.31.13-1.92.38l-11.08 4.62v-.17c0-1.24.22-2.44.65-3.57h-.01z" fill="#656D78"></path></g><g><path d="m33 51h2 8 12c0 5.52-4.48 10-10 10h-12z" fill="#969FAA"></path></g><g><path d="m55 37.24v13.76h-12v-4h1.51c1.6 0 3.12-.63 4.25-1.76l5-5c.79-.79 1.24-1.87 1.24-3z" fill="#FCD770"></path></g><g><path d="m41 41 6.76-6.76c.79-.79 1.87-1.24 3-1.24 1.17 0 2.23.48 3 1.24.76.77 1.24 1.83 1.24 3 0 1.13-.45 2.21-1.24 3l-5 5c-1.13 1.13-2.65 1.76-4.25 1.76h-1.51-8-2v-6z" fill="#FCD770"></path></g><g><path d="m33 41v6h-3.84c-2.25 0-4.07-1.77-4.15-4-.01-.05-.01-.11-.01-.16 0-1.06.43-2.02 1.12-2.72.7-.69 1.66-1.12 2.72-1.12.76 0 1.5.22 2.13.64z" fill="#F0D0B4"></path></g><g><path d="m58 15c.9 0 1.7.39 2.24 1.02.47.53.76 1.22.76 1.98 0 .83-.34 1.58-.88 2.12s-1.29.88-2.12.88h-1v-6z" fill="#F0D0B4"></path></g><g><path d="m33 15v6h-1c-.83 0-1.58-.34-2.12-.88s-.88-1.29-.88-2.12c0-1.39.93-2.55 2.21-2.89.25-.07.52-.11.79-.11z" fill="#F0D0B4"></path></g><g><path d="m39 14 11.08-4.62c.61-.25 1.26-.38 1.92-.38 1.38 0 2.63.56 3.54 1.46.9.91 1.46 2.16 1.46 3.54v1 6 4c0 4.42-3.58 8-8 8h-8c-4.42 0-8-3.58-8-8v-4-6l6.64-4.74h.01c-.43 1.13-.65 2.33-.65 3.57z" fill="#F0D0B4"></path></g><g><path d="m39 23h12c0 1.66-.67 3.16-1.76 4.24-1.08 1.09-2.58 1.76-4.24 1.76-3.31 0-6-2.69-6-6z" fill="#EF7385"></path></g></g><g><path d="m50 14c-2.206 0-4 1.794-4 4h2c0-1.103.897-2 2-2s2 .897 2 2h2c0-2.206-1.794-4-4-4z"></path><path d="m38 23c0 3.859 3.14 7 7 7s7-3.141 7-7v-1h-14zm11.899 1c-.464 2.279-2.485 4-4.899 4s-4.435-1.721-4.899-4z"></path><path d="m61.651 14.519c.232-.925.349-1.879.349-2.834 0-6.444-5.242-11.685-11.685-11.685h-9.315c-6.575 0-12.855 3.141-16.8 8.4l-.904 1.204 4.084 1.021-1.841 2.762 3.615 1.808c-.712.723-1.154 1.713-1.154 2.805 0 2.206 1.794 4 4 4v3c0 4.963 4.038 9 9 9h5.586l-6 6h-7.283l-1.782-1.188c-.797-.531-1.726-.812-2.683-.812-2.381 0-4.354 1.732-4.753 4h-7.085c-.54 0-1.039.155-1.477.405l-.346-1.038c-.273-.817-1.036-1.367-1.898-1.367h-7.279v-18.758c0-1.788 1.455-3.242 3.243-3.242.866 0 1.68.337 2.292.949l.921.922c-.281.512-.456 1.091-.456 1.715 0 .526.213 1.042.586 1.414l1.501 1.501 1.651 7.429c.27 1.218 1.332 2.07 2.581 2.07.707 0 1.372-.275 1.87-.774l.711-.711c.741.918 1.86 1.485 3.1 1.485 2.206 0 4-1.794 4-4 0-1.243-.567-2.36-1.485-3.101l.711-.711c.499-.5.774-1.164.774-1.869 0-1.249-.852-2.312-2.071-2.582l-7.429-1.651-1.5-1.5c-.378-.378-.88-.586-1.414-.586-.624 0-1.203.175-1.715.456l-.922-.922c-.991-.989-2.307-1.534-3.706-1.534-2.891 0-5.243 2.352-5.243 5.242v19.596l-1.721 5.162h-.279c-1.103 0-2 .897-2 2v2c0 1.103.897 2 2 2v10h58v-25c0-1.654-1.346-3-3-3-.656 0-1.259.218-1.753.577-.435-.73-1.035-1.342-1.758-1.788 2.692-1.557 4.511-4.462 4.511-7.789v-3c2.206 0 4-1.794 4-4 0-.815-.248-1.572-.668-2.205zm-35.651 15.481c0 1.103-.897 2-2 2-.694 0-1.307-.358-1.668-.917l2.75-2.75c.555.363.918.984.918 1.667zm0-5.681c0 .169-.069.335-.188.455l-7.038 7.037c-.331.331-.983.142-1.084-.315l-.14-.631 7.314-7.315.632.14c.296.066.504.325.504.629zm-7.681-2.223 4.231.94-5.514 5.515-.94-4.232zm-2.733-2.096 1 1-1.586 1.586-1-1c0-.874.711-1.586 1.586-1.586zm14.414-2c0-1.103.897-2 2-2v4c-1.103 0-2-.897-2-2zm24 32h-10v-2h.515c1.871 0 3.628-.729 4.95-2.051l4.535-4.535zm-12 0h-6v-2h6zm-13.162-10c.562 0 1.106.165 1.574.477l1.588 1.058v4.465h-2.838c-1.744 0-3.162-1.419-3.162-3.162 0-1.565 1.273-2.838 2.838-2.838zm-11.838 4h7.148c.171.737.486 1.421.936 2h-8.084c-.551 0-1-.448-1-1s.449-1 1-1zm-11.279-2h7.559l.79 2.37c-.045.204-.07.414-.07.63 0 .352.072.686.184 1h-9.796zm-3.721 6h32v2h-32zm2 4h28v8h-28zm30 8v-8h19.941c-.5 4.493-4.317 8-8.941 8zm17.305 0c1.047-.736 1.959-1.648 2.695-2.695v2.695zm4.695-23c0-.552.449-1 1-1s1 .448 1 1v23h-2zm-2.95 2.535-5 5c-.944.944-2.199 1.465-3.535 1.465h-10.515v-4h6.586l1.707 1.707 1.414-1.414-1.293-1.293 6.05-6.05c.613-.613 1.428-.95 2.293-.95 1.788 0 3.243 1.454 3.243 3.242 0 .867-.337 1.681-.95 2.293zm2.95-14.535c0 3.859-3.14 7-7 7h-8c-3.86 0-7-3.141-7-7v-9.486l4.081-2.915c-.045.408-.081.817-.081 1.232v.725c-1.19.694-2 1.97-2 3.444h2c0-1.103.897-2 2-2s2 .897 2 2h2c0-1.804-1.208-3.315-2.852-3.812l9.313-3.881c.491-.203 1.008-.307 1.539-.307 2.206 0 4 1.794 4 4zm-4-17c-.796 0-1.573.155-2.308.462l-9.589 3.995c.412-2.717 2.023-5.167 4.411-6.6l-1.029-1.715c-2.127 1.276-3.745 3.218-4.655 5.464l-4.669 3.335c.344-2.288 1.248-4.487 2.639-6.343l-1.6-1.198c-1.863 2.484-2.962 5.505-3.159 8.6h-.041c-.218 0-.428.031-.636.064l-2.904-1.452 2.159-3.238-3.85-.962c3.583-4.04 8.795-6.412 14.231-6.412h9.315c5.341 0 9.685 4.345 9.685 9.685 0 .792-.097 1.582-.289 2.35l-.08.321c-.5-.225-1.049-.356-1.631-.356 0-3.309-2.691-6-6-6zm6 12v-4c1.103 0 2 .897 2 2s-.897 2-2 2z"></path></g></g></svg>