<svg width="73" height="72" viewBox="0 0 73 72" fill="none" xmlns="http://www.w3.org/2000/svg">
<g filter="url(#filter0_b_777_1750)">
<circle cx="27.1088" cy="45.6735" r="8.70748" fill="url(#paint0_linear_777_1750)"/>
</g>
<g filter="url(#filter1_d_777_1750)">
<path d="M26.673 36.5306C21.5121 36.5306 17.3125 40.7297 17.3125 45.8901C17.3125 51.0504 21.5121 55.2517 26.673 55.2517C31.834 55.2517 36.0336 51.0526 36.0336 45.8922C36.0336 40.7319 31.834 36.5306 26.673 36.5306ZM30.7063 44.1059L26.025 49.1453C25.8132 49.3742 25.5238 49.4909 25.2321 49.4909C24.9815 49.4909 24.7331 49.4045 24.5279 49.2317L22.0068 47.0716C21.5532 46.6828 21.5013 46.0024 21.8902 45.5488C22.279 45.0952 22.9595 45.0412 23.4132 45.4321L25.1457 46.9161L29.1207 42.637C29.5268 42.2007 30.2094 42.1748 30.648 42.5809C31.0865 42.987 31.1103 43.6695 30.7063 44.1059Z" fill="url(#paint1_linear_777_1750)"/>
</g>
<defs>
<filter id="filter0_b_777_1750" x="-14.2477" y="4.31694" width="82.7131" height="82.7131" filterUnits="userSpaceOnUse" color-interpolation-filters="sRGB">
<feFlood flood-opacity="0" result="BackgroundImageFix"/>
<feGaussianBlur in="BackgroundImageFix" stdDeviation="16.3245"/>
<feComposite in2="SourceAlpha" operator="in" result="effect1_backgroundBlur_777_1750"/>
<feBlend mode="normal" in="SourceGraphic" in2="effect1_backgroundBlur_777_1750" result="shape"/>
</filter>
<filter id="filter1_d_777_1750" x="0.822951" y="0.253602" width="71.4873" height="71.4876" filterUnits="userSpaceOnUse" color-interpolation-filters="sRGB">
<feFlood flood-opacity="0" result="BackgroundImageFix"/>
<feColorMatrix in="SourceAlpha" type="matrix" values="0 0 0 0 0 0 0 0 0 0 0 0 0 0 0 0 0 0 127 0" result="hardAlpha"/>
<feOffset dx="9.89373" dy="-9.89373"/>
<feGaussianBlur stdDeviation="13.1916"/>
<feColorMatrix type="matrix" values="0 0 0 0 0.698039 0 0 0 0 0.968627 0 0 0 0 0.388235 0 0 0 0.2 0"/>
<feBlend mode="normal" in2="BackgroundImageFix" result="effect1_dropShadow_777_1750"/>
<feBlend mode="normal" in="SourceGraphic" in2="effect1_dropShadow_777_1750" result="shape"/>
</filter>
<linearGradient id="paint0_linear_777_1750" x1="34.5816" y1="40.1108" x2="12.88" y2="37.11" gradientUnits="userSpaceOnUse">
<stop stop-color="white"/>
<stop offset="1" stop-color="white" stop-opacity="0.61"/>
</linearGradient>
<linearGradient id="paint1_linear_777_1750" x1="36.0336" y1="36.5306" x2="22.8335" y2="51.9688" gradientUnits="userSpaceOnUse">
<stop stop-color="#B2F763"/>
<stop offset="1" stop-color="#26AB3F"/>
</linearGradient>
</defs>
</svg>
