<svg width="18" height="16" viewBox="0 0 18 16" fill="none" xmlns="http://www.w3.org/2000/svg">
<g clip-path="url(#clip0_814_48480)">
<path d="M17.148 0.266522C16.9448 0.0826635 16.677 -0.0130102 16.4034 0.000532006C16.1297 0.0140742 15.8726 0.135724 15.6887 0.33874L6.18329 10.8228L1.69831 7.14714C1.50428 6.98567 1.25807 6.9004 1.00572 6.90729C0.753382 6.91417 0.512189 7.01274 0.327248 7.18456C0.142308 7.35638 0.0262868 7.58968 0.000880386 7.84083C-0.024526 8.09198 0.0424227 8.34379 0.189207 8.54917L4.84851 15.1907C4.98366 15.3801 5.15248 15.543 5.34656 15.6713C5.55454 15.814 5.78858 15.9142 6.0353 15.9664C6.28203 16.0185 6.53661 16.0216 6.78451 15.9753C7.03242 15.9291 7.26878 15.8344 7.4801 15.6968C7.69143 15.5592 7.87357 15.3813 8.01613 15.1733L8.09084 15.0612L17.3173 1.61376C17.457 1.40678 17.5169 1.15611 17.4857 0.908326C17.4546 0.660542 17.3346 0.432485 17.148 0.266522Z" fill="#DBA21E"/>
</g>
<defs>
<clipPath id="clip0_814_48480">
<rect width="17.4867" height="16" fill="white"/>
</clipPath>
</defs>
</svg>
