<svg width="142" height="139" viewBox="0 0 142 139" fill="none" xmlns="http://www.w3.org/2000/svg">
<path d="M25.1112 71.4623L0 69.3252L25.1112 67.1677C36.0121 65.4157 46.0768 60.3629 53.8882 52.7207C61.6997 45.0785 66.8644 35.2318 68.6552 24.5671L70.8605 0L72.941 24.5671C74.736 35.2335 79.9047 45.0806 87.7197 52.7226C95.5346 60.3646 105.602 65.4167 116.506 67.1677L141.638 69.3252L116.506 71.4623C105.634 73.2308 95.5998 78.2804 87.8069 85.9044C80.014 93.5285 74.8526 103.345 73.045 113.982L70.9645 138.569L68.6552 113.982C66.8456 103.333 61.6729 93.5058 53.8633 85.88C46.0536 78.2542 35.9991 73.2124 25.1112 71.4623Z" fill="white"/>
</svg>
