<svg width="104" height="66" viewBox="0 0 104 66" fill="none" xmlns="http://www.w3.org/2000/svg">
<rect x="0.509644" y="35.7476" width="3.05551" height="3.05551" transform="rotate(-90 0.509644 35.7476)" fill="#141313"/>
<rect x="0.509644" y="50.7017" width="3.05551" height="3.05551" transform="rotate(-90 0.509644 50.7017)" fill="#141313"/>
<rect x="0.509644" y="66" width="3.05551" height="3.05551" transform="rotate(-90 0.509644 66)" fill="#141313"/>
<rect x="0.000183105" y="18.4329" width="3.05551" height="3.05551" transform="rotate(-60 0.000183105 18.4329)" fill="#141313"/>
<rect x="0.000183105" y="1.52783" width="3.05551" height="3.05551" transform="rotate(-30 0.000183105 1.52783)" fill="#141313"/>
<rect x="14.6829" y="35.7476" width="3.05551" height="3.05551" transform="rotate(-90 14.6829 35.7476)" fill="#141313"/>
<rect x="14.6829" y="50.7017" width="3.05551" height="3.05551" transform="rotate(-90 14.6829 50.7017)" fill="#141313"/>
<rect x="14.6829" y="66" width="3.05551" height="3.05551" transform="rotate(-90 14.6829 66)" fill="#141313"/>
<rect x="14.1738" y="18.4329" width="3.05551" height="3.05551" transform="rotate(-60 14.1738 18.4329)" fill="#141313"/>
<rect x="14.1738" y="1.52783" width="3.05551" height="3.05551" transform="rotate(-30 14.1738 1.52783)" fill="#141313"/>
<rect x="28.8569" y="35.7476" width="3.05551" height="3.05551" transform="rotate(-90 28.8569 35.7476)" fill="#141313"/>
<rect x="28.8569" y="50.7017" width="3.05551" height="3.05551" transform="rotate(-90 28.8569 50.7017)" fill="#141313"/>
<rect x="28.8569" y="66" width="3.05551" height="3.05551" transform="rotate(-90 28.8569 66)" fill="#141313"/>
<rect x="28.3476" y="18.4827" width="3.05551" height="3.05551" transform="rotate(-60 28.3476 18.4827)" fill="#141313"/>
<rect x="28.3476" y="1.52783" width="3.05551" height="3.05551" transform="rotate(-30 28.3476 1.52783)" fill="#141313"/>
<rect x="43.0309" y="35.7476" width="3.05551" height="3.05551" transform="rotate(-90 43.0309 35.7476)" fill="#141313"/>
<rect x="43.0309" y="50.7017" width="3.05551" height="3.05551" transform="rotate(-90 43.0309 50.7017)" fill="#141313"/>
<rect x="43.0309" y="66" width="3.05551" height="3.05551" transform="rotate(-90 43.0309 66)" fill="#141313"/>
<rect x="42.5215" y="18.4329" width="3.05551" height="3.05551" transform="rotate(-60 42.5215 18.4329)" fill="#141313"/>
<rect x="42.5215" y="1.52783" width="3.05551" height="3.05551" transform="rotate(-30 42.5215 1.52783)" fill="#141313"/>
<rect x="57.2048" y="35.7476" width="3.05551" height="3.05551" transform="rotate(-90 57.2048 35.7476)" fill="#141313"/>
<rect x="57.2048" y="50.7017" width="3.05551" height="3.05551" transform="rotate(-90 57.2048 50.7017)" fill="#141313"/>
<rect x="57.2048" y="66" width="3.05551" height="3.05551" transform="rotate(-90 57.2048 66)" fill="#141313"/>
<rect x="56.6957" y="18.4329" width="3.05551" height="3.05551" transform="rotate(-60 56.6957 18.4329)" fill="#141313"/>
<rect x="56.6957" y="1.52783" width="3.05551" height="3.05551" transform="rotate(-30 56.6957 1.52783)" fill="#141313"/>
<rect x="71.3785" y="35.7476" width="3.05551" height="3.05551" transform="rotate(-90 71.3785 35.7476)" fill="#141313"/>
<rect x="71.3785" y="50.7017" width="3.05551" height="3.05551" transform="rotate(-90 71.3785 50.7017)" fill="#141313"/>
<rect x="71.3785" y="66" width="3.05551" height="3.05551" transform="rotate(-90 71.3785 66)" fill="#141313"/>
<rect x="70.8694" y="18.4827" width="3.05551" height="3.05551" transform="rotate(-60 70.8694 18.4827)" fill="#141313"/>
<rect x="70.8694" y="1.52783" width="3.05551" height="3.05551" transform="rotate(-30 70.8694 1.52783)" fill="#141313"/>
<rect x="85.553" y="35.7476" width="3.05551" height="3.05551" transform="rotate(-90 85.553 35.7476)" fill="#141313"/>
<rect x="85.553" y="50.7017" width="3.05551" height="3.05551" transform="rotate(-90 85.553 50.7017)" fill="#141313"/>
<rect x="85.553" y="66" width="3.05551" height="3.05551" transform="rotate(-90 85.553 66)" fill="#141313"/>
<rect x="85.0436" y="18.4329" width="3.05551" height="3.05551" transform="rotate(-60 85.0436 18.4329)" fill="#141313"/>
<rect x="85.0436" y="1.52783" width="3.05551" height="3.05551" transform="rotate(-30 85.0436 1.52783)" fill="#141313"/>
<rect x="99.7264" y="35.7476" width="3.05551" height="3.05551" transform="rotate(-90 99.7264 35.7476)" fill="#141313"/>
<rect x="99.7264" y="50.7017" width="3.05551" height="3.05551" transform="rotate(-90 99.7264 50.7017)" fill="#141313"/>
<rect x="99.7264" y="66" width="3.05551" height="3.05551" transform="rotate(-90 99.7264 66)" fill="#141313"/>
<rect x="99.2173" y="18.4329" width="3.05551" height="3.05551" transform="rotate(-60 99.2173 18.4329)" fill="#141313"/>
<rect x="99.2173" y="1.52783" width="3.05551" height="3.05551" transform="rotate(-30 99.2173 1.52783)" fill="#141313"/>
</svg>
