<svg width="66" height="104" viewBox="0 0 66 104" fill="none" xmlns="http://www.w3.org/2000/svg">
<rect x="30.2525" y="0.509644" width="3.05551" height="3.05551" fill="#141313"/>
<rect x="15.2985" y="0.509644" width="3.05551" height="3.05551" fill="#141313"/>
<rect y="0.509644" width="3.05551" height="3.05551" fill="#141313"/>
<rect x="47.5671" y="0.000244141" width="3.05551" height="3.05551" transform="rotate(30 47.5671 0.000244141)" fill="#141313"/>
<rect x="64.4723" y="0.000244141" width="3.05551" height="3.05551" transform="rotate(60 64.4723 0.000244141)" fill="#141313"/>
<rect x="30.2525" y="14.683" width="3.05551" height="3.05551" fill="#141313"/>
<rect x="15.2985" y="14.683" width="3.05551" height="3.05551" fill="#141313"/>
<rect y="14.683" width="3.05551" height="3.05551" fill="#141313"/>
<rect x="47.5671" y="14.1738" width="3.05551" height="3.05551" transform="rotate(30 47.5671 14.1738)" fill="#141313"/>
<rect x="64.4723" y="14.1738" width="3.05551" height="3.05551" transform="rotate(60 64.4723 14.1738)" fill="#141313"/>
<rect x="30.2525" y="28.8568" width="3.05551" height="3.05551" fill="#141313"/>
<rect x="15.2985" y="28.8568" width="3.05551" height="3.05551" fill="#141313"/>
<rect y="28.8568" width="3.05551" height="3.05551" fill="#141313"/>
<rect x="47.5174" y="28.3477" width="3.05551" height="3.05551" transform="rotate(30 47.5174 28.3477)" fill="#141313"/>
<rect x="64.4723" y="28.3477" width="3.05551" height="3.05551" transform="rotate(60 64.4723 28.3477)" fill="#141313"/>
<rect x="30.2525" y="43.0309" width="3.05551" height="3.05551" fill="#141313"/>
<rect x="15.2985" y="43.0309" width="3.05551" height="3.05551" fill="#141313"/>
<rect y="43.0309" width="3.05551" height="3.05551" fill="#141313"/>
<rect x="47.5671" y="42.5215" width="3.05551" height="3.05551" transform="rotate(30 47.5671 42.5215)" fill="#141313"/>
<rect x="64.4723" y="42.5215" width="3.05551" height="3.05551" transform="rotate(60 64.4723 42.5215)" fill="#141313"/>
<rect x="30.2525" y="57.2047" width="3.05551" height="3.05551" fill="#141313"/>
<rect x="15.2985" y="57.2047" width="3.05551" height="3.05551" fill="#141313"/>
<rect y="57.2047" width="3.05551" height="3.05551" fill="#141313"/>
<rect x="47.5671" y="56.6957" width="3.05551" height="3.05551" transform="rotate(30 47.5671 56.6957)" fill="#141313"/>
<rect x="64.4723" y="56.6957" width="3.05551" height="3.05551" transform="rotate(60 64.4723 56.6957)" fill="#141313"/>
<rect x="30.2525" y="71.3784" width="3.05551" height="3.05551" fill="#141313"/>
<rect x="15.2985" y="71.3784" width="3.05551" height="3.05551" fill="#141313"/>
<rect y="71.3784" width="3.05551" height="3.05551" fill="#141313"/>
<rect x="47.5174" y="70.8694" width="3.05551" height="3.05551" transform="rotate(30 47.5174 70.8694)" fill="#141313"/>
<rect x="64.4723" y="70.8694" width="3.05551" height="3.05551" transform="rotate(60 64.4723 70.8694)" fill="#141313"/>
<rect x="30.2525" y="85.5531" width="3.05551" height="3.05551" fill="#141313"/>
<rect x="15.2985" y="85.5531" width="3.05551" height="3.05551" fill="#141313"/>
<rect y="85.5531" width="3.05551" height="3.05551" fill="#141313"/>
<rect x="47.5671" y="85.0437" width="3.05551" height="3.05551" transform="rotate(30 47.5671 85.0437)" fill="#141313"/>
<rect x="64.4723" y="85.0437" width="3.05551" height="3.05551" transform="rotate(60 64.4723 85.0437)" fill="#141313"/>
<rect x="30.2525" y="99.7264" width="3.05551" height="3.05551" fill="#141313"/>
<rect x="15.2985" y="99.7264" width="3.05551" height="3.05551" fill="#141313"/>
<rect y="99.7264" width="3.05551" height="3.05551" fill="#141313"/>
<rect x="47.5671" y="99.2173" width="3.05551" height="3.05551" transform="rotate(30 47.5671 99.2173)" fill="#141313"/>
<rect x="64.4723" y="99.2173" width="3.05551" height="3.05551" transform="rotate(60 64.4723 99.2173)" fill="#141313"/>
</svg>
