<svg width="16" height="16" viewBox="0 0 16 16" fill="none" xmlns="http://www.w3.org/2000/svg">
<path fill-rule="evenodd" clip-rule="evenodd" d="M14.816 7.7066L2.10979 1.55841C2.05658 1.53266 1.99711 1.52274 1.93843 1.5298C1.87975 1.53687 1.82433 1.56063 1.77876 1.59827C1.73319 1.63591 1.69939 1.68584 1.68136 1.74213C1.66334 1.79842 1.66185 1.8587 1.67708 1.91581L3.12597 7.3492C3.23967 7.77558 3.23967 8.22431 3.12597 8.65069L1.67708 14.0841C1.66185 14.1412 1.66334 14.2015 1.68136 14.2578C1.69939 14.314 1.73319 14.364 1.77876 14.4016C1.82433 14.4392 1.87975 14.463 1.93843 14.4701C1.99711 14.4771 2.05658 14.4672 2.10979 14.4415L14.816 8.29329C14.8712 8.26661 14.9177 8.22495 14.9502 8.17307C14.9827 8.12118 15 8.06118 15 7.99994C15 7.9387 14.9827 7.8787 14.9502 7.82682C14.9177 7.77493 14.8712 7.73327 14.816 7.7066Z" fill="#DBA21E"/>
<path fill-rule="evenodd" clip-rule="evenodd" d="M1.93814 1.52984C1.89428 1.53516 1.85208 1.54984 1.81437 1.57287C1.77667 1.59591 1.74436 1.62677 1.71961 1.66337C1.69486 1.69997 1.67825 1.74145 1.67091 1.78502C1.66357 1.82859 1.66568 1.87323 1.67708 1.91591L3.12629 7.34886C3.18293 7.56123 3.2116 7.7801 3.21158 7.9999H15C15 7.93858 14.9827 7.8785 14.9501 7.82656C14.9176 7.77462 14.871 7.73293 14.8157 7.70628L2.11002 1.55849C2.05667 1.53263 1.997 1.52269 1.93814 1.52984Z" fill="#112145"/>
</svg>
