<svg width="22" height="22" viewBox="0 0 22 22" fill="none" xmlns="http://www.w3.org/2000/svg">
<path d="M1.30874 18.8568C1.16624 19.3818 1.30874 19.9218 1.69871 20.3043C2.08122 20.6868 2.62124 20.8368 3.14625 20.6943L5.62875 20.0268C7.27871 21.0093 9.13124 21.4893 10.9762 21.4893C13.6987 21.4893 16.4062 20.4468 18.4237 18.4293C20.5312 16.3218 21.6487 13.4043 21.4837 10.4268C21.3187 7.44933 19.8787 4.66681 17.5312 2.79181C13.7062 -0.275666 8.17872 -0.245682 4.37622 2.85933C0.326243 6.17432 -0.678777 11.9268 1.97621 16.3743L1.30874 18.8568ZM11.0137 17.0043C10.6012 17.0043 10.2637 16.6668 10.2637 16.2543C10.2637 15.8418 10.5937 15.5043 11.0062 15.5043H11.0137C11.4262 15.5043 11.7637 15.8418 11.7637 16.2543C11.7637 16.6668 11.4262 17.0043 11.0137 17.0043ZM8.89123 5.7393C9.70124 5.09431 10.7587 4.85431 11.7937 5.09431C13.0312 5.37932 14.0137 6.36182 14.2987 7.60684C14.6212 9.00934 14.0587 10.4343 12.8662 11.2218C12.1687 11.6868 11.7487 12.5118 11.7487 13.4193C11.7487 13.8393 11.4112 14.1693 10.9987 14.1693C10.5862 14.1693 10.2487 13.8393 10.2487 13.4193C10.2487 12.0093 10.9162 10.7193 12.0412 9.96931C12.7087 9.53435 13.0237 8.73184 12.8362 7.93684C12.6862 7.26933 12.1237 6.71434 11.4562 6.55682C10.8637 6.42183 10.2862 6.54932 9.82122 6.91681C9.37124 7.27684 9.10871 7.81682 9.10871 8.39433C9.10871 8.80682 8.77125 9.14433 8.35871 9.14433C7.94622 9.14433 7.60871 8.80682 7.60871 8.39433C7.60871 7.35933 8.07371 6.39185 8.89123 5.7393Z" fill="#D9D9D9"/>
</svg>
