<svg width="34" height="34" viewBox="0 0 34 34" fill="none" xmlns="http://www.w3.org/2000/svg">
<path d="M23.43 21.8649L21.9843 32.8279C21.9478 33.0913 21.8315 33.3373 21.6511 33.5328C21.4706 33.7283 21.2347 33.8638 20.975 33.9213C20.7152 33.9787 20.4442 33.9553 20.1981 33.8541C19.9521 33.753 19.7429 33.579 19.5987 33.3555L13.6648 24.0246C13.5617 23.864 13.4249 23.7276 13.264 23.625C13.103 23.5223 12.9217 23.4558 12.7326 23.43L1.76964 21.9844C1.50615 21.9478 1.26016 21.8315 1.0647 21.6511C0.869245 21.4707 0.733691 21.2347 0.676249 20.975C0.618807 20.7153 0.642229 20.4442 0.743369 20.1982C0.844508 19.9521 1.01852 19.743 1.24203 19.5987L10.5729 13.6648C10.7335 13.5617 10.8699 13.425 10.9725 13.264C11.0752 13.1031 11.1417 12.9218 11.1675 12.7326L12.6131 1.76968C12.6497 1.50619 12.766 1.2602 12.9464 1.06474C13.1268 0.869287 13.3628 0.733732 13.6225 0.67629C13.8822 0.618848 14.1533 0.64227 14.3993 0.743409C14.6454 0.844549 14.8545 1.01856 14.9988 1.24207L20.9327 10.5729C21.0358 10.7336 21.1725 10.8699 21.3335 10.9726C21.4944 11.0752 21.6757 11.1417 21.8649 11.1675L32.8278 12.6132C33.0913 12.6497 33.3373 12.766 33.5328 12.9464C33.7282 13.1269 33.8638 13.3628 33.9212 13.6225C33.9787 13.8823 33.9552 14.1533 33.8541 14.3994C33.753 14.6454 33.5789 14.8546 33.3554 14.9988L24.0246 20.9327C23.8639 21.0358 23.7276 21.1726 23.6249 21.3335C23.5223 21.4945 23.4558 21.6758 23.43 21.8649Z" fill="white"/>
</svg>
