<svg width="32" height="33" viewBox="0 0 32 33" fill="none" xmlns="http://www.w3.org/2000/svg">
<rect y="0.5" width="32" height="32" rx="6" fill="white"/>
<path d="M16.4125 22.8781L21.1375 25.8781C21.7469 26.2625 22.4969 25.6906 22.3187 24.9875L20.95 19.6063C20.913 19.4571 20.9189 19.3005 20.967 19.1546C21.0151 19.0086 21.1034 18.8792 21.2219 18.7813L25.4594 15.2469C26.0125 14.7875 25.7312 13.8594 25.0094 13.8125L19.4781 13.4563C19.3272 13.4475 19.1821 13.3949 19.0606 13.305C18.939 13.2151 18.8463 13.0918 18.7937 12.95L16.7312 7.75627C16.6767 7.60618 16.5772 7.47653 16.4464 7.38491C16.3156 7.29329 16.1597 7.24414 16 7.24414C15.8403 7.24414 15.6844 7.29329 15.5536 7.38491C15.4228 7.47653 15.3233 7.60618 15.2687 7.75627L13.2062 12.95C13.1537 13.0918 13.061 13.2151 12.9394 13.305C12.8179 13.3949 12.6728 13.4475 12.5219 13.4563L6.99062 13.8125C6.26875 13.8594 5.9875 14.7875 6.54062 15.2469L10.7781 18.7813C10.8966 18.8792 10.9849 19.0086 11.033 19.1546C11.0811 19.3005 11.087 19.4571 11.05 19.6063L9.78437 24.5938C9.56875 25.4375 10.4687 26.1219 11.1906 25.6625L15.5875 22.8781C15.7108 22.7997 15.8539 22.7581 16 22.7581C16.1461 22.7581 16.2892 22.7997 16.4125 22.8781Z" fill="#DBA21E" stroke="#DBA21E" stroke-width="1.5" stroke-linecap="round" stroke-linejoin="round"/>
</svg>
