<svg width="92" height="24" viewBox="0 0 92 24" fill="none" xmlns="http://www.w3.org/2000/svg">
<g clip-path="url(#clip0_814_48185)">
<path d="M46.8831 1.08803L50.0575 7.52009L57.1557 8.55153C57.9635 8.66885 58.286 9.66152 57.7016 10.2313L52.5652 15.2379L53.7777 22.3074C53.9157 23.1119 53.0713 23.7254 52.3488 23.3455L46 20.0078L39.6511 23.3455C38.9287 23.7253 38.0843 23.1119 38.2223 22.3074L39.4348 15.2379L34.2985 10.2312C33.714 9.66148 34.0365 8.6689 34.8443 8.55148L41.9425 7.52005L45.1169 1.08803C45.4782 0.356075 46.5218 0.356075 46.8831 1.08803Z" fill="url(#paint0_linear_814_48185)"/>
<path d="M50.0574 7.52008L46.8831 1.08801C46.7025 0.722062 46.3512 0.539062 46 0.539062V12.7166L50.0574 7.52008Z" fill="url(#paint1_linear_814_48185)"/>
<path d="M52.5651 15.2379L57.7014 10.2312C57.9898 9.95012 58.057 9.56626 57.9545 9.23523L45.9999 12.7166L52.5651 15.2379Z" fill="url(#paint2_linear_814_48185)"/>
<path d="M53.3888 23.2684L45.9999 12.7167V20.0079L52.3488 23.3456C52.7113 23.5362 53.1044 23.4766 53.3888 23.2684Z" fill="url(#paint3_linear_814_48185)"/>
<path d="M46 12.7167L39.4348 15.238L38.2223 22.3075C38.1535 22.7083 38.3288 23.0616 38.6111 23.2684L46 12.7167Z" fill="url(#paint4_linear_814_48185)"/>
<path d="M34.0454 9.23526L46 12.7166L41.9425 7.52002L34.8443 8.5515C34.435 8.61094 34.1507 8.89523 34.0454 9.23526Z" fill="url(#paint5_linear_814_48185)"/>
<path d="M39.4348 15.238L34.2985 10.2313C34.0101 9.95024 33.9429 9.56638 34.0454 9.23535L46 12.7167L39.4348 15.238Z" fill="url(#paint6_linear_814_48185)"/>
</g>
<g clip-path="url(#clip1_814_48185)">
<path d="M12.8831 1.08803L16.0575 7.52009L23.1557 8.55153C23.9635 8.66885 24.286 9.66152 23.7016 10.2313L18.5652 15.2379L19.7777 22.3074C19.9157 23.1119 19.0713 23.7254 18.3488 23.3455L12 20.0078L5.65114 23.3455C4.92871 23.7253 4.08431 23.1119 4.2223 22.3074L5.43482 15.2379L0.298461 10.2312C-0.286021 9.66148 0.0365243 8.6689 0.844271 8.55148L7.94248 7.52005L11.1169 1.08803C11.4782 0.356075 12.5218 0.356075 12.8831 1.08803Z" fill="url(#paint7_linear_814_48185)"/>
<path d="M16.0574 7.52008L12.8831 1.08801C12.7025 0.722062 12.3512 0.539062 12 0.539062V12.7166L16.0574 7.52008Z" fill="url(#paint8_linear_814_48185)"/>
<path d="M18.5651 15.2379L23.7014 10.2312C23.9898 9.95012 24.057 9.56626 23.9545 9.23523L11.9999 12.7166L18.5651 15.2379Z" fill="url(#paint9_linear_814_48185)"/>
<path d="M19.3888 23.2684L11.9999 12.7167V20.0079L18.3488 23.3456C18.7113 23.5362 19.1044 23.4766 19.3888 23.2684Z" fill="url(#paint10_linear_814_48185)"/>
<path d="M12 12.7167L5.43477 15.238L4.22231 22.3075C4.15355 22.7083 4.32876 23.0616 4.61109 23.2684L12 12.7167Z" fill="url(#paint11_linear_814_48185)"/>
<path d="M0.0453796 9.23526L12 12.7166L7.94247 7.52002L0.844267 8.5515C0.435003 8.61094 0.15066 8.89523 0.0453796 9.23526Z" fill="url(#paint12_linear_814_48185)"/>
<path d="M5.43481 15.238L0.298454 10.2313C0.010127 9.95024 -0.0571384 9.56638 0.0453769 9.23535L12 12.7167L5.43481 15.238Z" fill="url(#paint13_linear_814_48185)"/>
</g>
<g clip-path="url(#clip2_814_48185)">
<path d="M80.8831 1.08803L84.0575 7.52009L91.1557 8.55153C91.9635 8.66885 92.286 9.66152 91.7016 10.2313L86.5652 15.2379L87.7777 22.3074C87.9157 23.1119 87.0713 23.7254 86.3488 23.3455L80 20.0078L73.6511 23.3455C72.9287 23.7253 72.0843 23.1119 72.2223 22.3074L73.4348 15.2379L68.2985 10.2312C67.714 9.66148 68.0365 8.6689 68.8443 8.55148L75.9425 7.52005L79.1169 1.08803C79.4782 0.356075 80.5218 0.356075 80.8831 1.08803Z" fill="url(#paint14_linear_814_48185)"/>
<path d="M84.0574 7.52008L80.8831 1.08801C80.7025 0.722062 80.3512 0.539062 80 0.539062V12.7166L84.0574 7.52008Z" fill="url(#paint15_linear_814_48185)"/>
<path d="M86.5651 15.2379L91.7014 10.2312C91.9898 9.95012 92.057 9.56626 91.9545 9.23523L79.9999 12.7166L86.5651 15.2379Z" fill="url(#paint16_linear_814_48185)"/>
<path d="M87.3888 23.2684L79.9999 12.7167V20.0079L86.3488 23.3456C86.7113 23.5362 87.1044 23.4766 87.3888 23.2684Z" fill="url(#paint17_linear_814_48185)"/>
<path d="M80 12.7167L73.4348 15.238L72.2223 22.3075C72.1535 22.7083 72.3288 23.0616 72.6111 23.2684L80 12.7167Z" fill="url(#paint18_linear_814_48185)"/>
<path d="M68.0454 9.23526L80 12.7166L75.9425 7.52002L68.8443 8.5515C68.435 8.61094 68.1507 8.89523 68.0454 9.23526Z" fill="url(#paint19_linear_814_48185)"/>
<path d="M73.4348 15.238L68.2985 10.2313C68.0101 9.95024 67.9429 9.56638 68.0454 9.23535L80 12.7167L73.4348 15.238Z" fill="url(#paint20_linear_814_48185)"/>
</g>
<defs>
<linearGradient id="paint0_linear_814_48185" x1="46.0004" y1="3.21228" x2="46.0004" y2="29.6935" gradientUnits="userSpaceOnUse">
<stop stop-color="#FFCF95"/>
<stop offset="0.427" stop-color="#FFC954"/>
<stop offset="1" stop-color="#FFC200"/>
</linearGradient>
<linearGradient id="paint1_linear_814_48185" x1="52.2205" y1="6.62721" x2="44.2153" y2="6.62721" gradientUnits="userSpaceOnUse">
<stop stop-color="#FFC200" stop-opacity="0"/>
<stop offset="0.203" stop-color="#FFBB00" stop-opacity="0.203"/>
<stop offset="0.499" stop-color="#FFA700" stop-opacity="0.499"/>
<stop offset="0.852" stop-color="#FF8800" stop-opacity="0.852"/>
<stop offset="1" stop-color="#FF7800"/>
</linearGradient>
<linearGradient id="paint2_linear_814_48185" x1="53.588" y1="18.8922" x2="51.468" y2="8.45191" gradientUnits="userSpaceOnUse">
<stop stop-color="#FFC200" stop-opacity="0"/>
<stop offset="0.203" stop-color="#FFBB00" stop-opacity="0.203"/>
<stop offset="0.499" stop-color="#FFA700" stop-opacity="0.499"/>
<stop offset="0.852" stop-color="#FF8800" stop-opacity="0.852"/>
<stop offset="1" stop-color="#FF7800"/>
</linearGradient>
<linearGradient id="paint3_linear_814_48185" x1="43.3082" y1="24.3789" x2="51.6115" y2="16.0757" gradientUnits="userSpaceOnUse">
<stop stop-color="#FFC200" stop-opacity="0"/>
<stop offset="0.203" stop-color="#FFBB00" stop-opacity="0.203"/>
<stop offset="0.499" stop-color="#FFA700" stop-opacity="0.499"/>
<stop offset="0.852" stop-color="#FF8800" stop-opacity="0.852"/>
<stop offset="1" stop-color="#FF7800"/>
</linearGradient>
<linearGradient id="paint4_linear_814_48185" x1="37.3871" y1="13.8787" x2="43.5073" y2="18.9988" gradientUnits="userSpaceOnUse">
<stop stop-color="#FFC200" stop-opacity="0"/>
<stop offset="0.203" stop-color="#FFBB00" stop-opacity="0.203"/>
<stop offset="0.499" stop-color="#FFA700" stop-opacity="0.499"/>
<stop offset="0.852" stop-color="#FF8800" stop-opacity="0.852"/>
<stop offset="1" stop-color="#FF7800"/>
</linearGradient>
<linearGradient id="paint5_linear_814_48185" x1="41.975" y1="5.43273" x2="39.4949" y2="12.4729" gradientUnits="userSpaceOnUse">
<stop stop-color="#FFC200" stop-opacity="0"/>
<stop offset="0.203" stop-color="#FFBB00" stop-opacity="0.203"/>
<stop offset="0.499" stop-color="#FFA700" stop-opacity="0.499"/>
<stop offset="0.852" stop-color="#FF8800" stop-opacity="0.852"/>
<stop offset="1" stop-color="#FF7800"/>
</linearGradient>
<linearGradient id="paint6_linear_814_48185" x1="51.3106" y1="6.16802" x2="33.0901" y2="13.9282" gradientUnits="userSpaceOnUse">
<stop stop-color="#FFC200" stop-opacity="0"/>
<stop offset="0.203" stop-color="#FFBB00" stop-opacity="0.203"/>
<stop offset="0.499" stop-color="#FFA700" stop-opacity="0.499"/>
<stop offset="0.852" stop-color="#FF8800" stop-opacity="0.852"/>
<stop offset="1" stop-color="#FF7800"/>
</linearGradient>
<linearGradient id="paint7_linear_814_48185" x1="12.0004" y1="3.21228" x2="12.0004" y2="29.6935" gradientUnits="userSpaceOnUse">
<stop stop-color="#FFCF95"/>
<stop offset="0.427" stop-color="#FFC954"/>
<stop offset="1" stop-color="#FFC200"/>
</linearGradient>
<linearGradient id="paint8_linear_814_48185" x1="18.2205" y1="6.62721" x2="10.2153" y2="6.62721" gradientUnits="userSpaceOnUse">
<stop stop-color="#FFC200" stop-opacity="0"/>
<stop offset="0.203" stop-color="#FFBB00" stop-opacity="0.203"/>
<stop offset="0.499" stop-color="#FFA700" stop-opacity="0.499"/>
<stop offset="0.852" stop-color="#FF8800" stop-opacity="0.852"/>
<stop offset="1" stop-color="#FF7800"/>
</linearGradient>
<linearGradient id="paint9_linear_814_48185" x1="19.588" y1="18.8922" x2="17.468" y2="8.45191" gradientUnits="userSpaceOnUse">
<stop stop-color="#FFC200" stop-opacity="0"/>
<stop offset="0.203" stop-color="#FFBB00" stop-opacity="0.203"/>
<stop offset="0.499" stop-color="#FFA700" stop-opacity="0.499"/>
<stop offset="0.852" stop-color="#FF8800" stop-opacity="0.852"/>
<stop offset="1" stop-color="#FF7800"/>
</linearGradient>
<linearGradient id="paint10_linear_814_48185" x1="9.30824" y1="24.3789" x2="17.6115" y2="16.0757" gradientUnits="userSpaceOnUse">
<stop stop-color="#FFC200" stop-opacity="0"/>
<stop offset="0.203" stop-color="#FFBB00" stop-opacity="0.203"/>
<stop offset="0.499" stop-color="#FFA700" stop-opacity="0.499"/>
<stop offset="0.852" stop-color="#FF8800" stop-opacity="0.852"/>
<stop offset="1" stop-color="#FF7800"/>
</linearGradient>
<linearGradient id="paint11_linear_814_48185" x1="3.38711" y1="13.8787" x2="9.50728" y2="18.9988" gradientUnits="userSpaceOnUse">
<stop stop-color="#FFC200" stop-opacity="0"/>
<stop offset="0.203" stop-color="#FFBB00" stop-opacity="0.203"/>
<stop offset="0.499" stop-color="#FFA700" stop-opacity="0.499"/>
<stop offset="0.852" stop-color="#FF8800" stop-opacity="0.852"/>
<stop offset="1" stop-color="#FF7800"/>
</linearGradient>
<linearGradient id="paint12_linear_814_48185" x1="7.97501" y1="5.43273" x2="5.49494" y2="12.4729" gradientUnits="userSpaceOnUse">
<stop stop-color="#FFC200" stop-opacity="0"/>
<stop offset="0.203" stop-color="#FFBB00" stop-opacity="0.203"/>
<stop offset="0.499" stop-color="#FFA700" stop-opacity="0.499"/>
<stop offset="0.852" stop-color="#FF8800" stop-opacity="0.852"/>
<stop offset="1" stop-color="#FF7800"/>
</linearGradient>
<linearGradient id="paint13_linear_814_48185" x1="17.3106" y1="6.16802" x2="-0.90991" y2="13.9282" gradientUnits="userSpaceOnUse">
<stop stop-color="#FFC200" stop-opacity="0"/>
<stop offset="0.203" stop-color="#FFBB00" stop-opacity="0.203"/>
<stop offset="0.499" stop-color="#FFA700" stop-opacity="0.499"/>
<stop offset="0.852" stop-color="#FF8800" stop-opacity="0.852"/>
<stop offset="1" stop-color="#FF7800"/>
</linearGradient>
<linearGradient id="paint14_linear_814_48185" x1="80.0004" y1="3.21228" x2="80.0004" y2="29.6935" gradientUnits="userSpaceOnUse">
<stop stop-color="#FFCF95"/>
<stop offset="0.427" stop-color="#FFC954"/>
<stop offset="1" stop-color="#FFC200"/>
</linearGradient>
<linearGradient id="paint15_linear_814_48185" x1="86.2205" y1="6.62721" x2="78.2153" y2="6.62721" gradientUnits="userSpaceOnUse">
<stop stop-color="#FFC200" stop-opacity="0"/>
<stop offset="0.203" stop-color="#FFBB00" stop-opacity="0.203"/>
<stop offset="0.499" stop-color="#FFA700" stop-opacity="0.499"/>
<stop offset="0.852" stop-color="#FF8800" stop-opacity="0.852"/>
<stop offset="1" stop-color="#FF7800"/>
</linearGradient>
<linearGradient id="paint16_linear_814_48185" x1="87.588" y1="18.8922" x2="85.468" y2="8.45191" gradientUnits="userSpaceOnUse">
<stop stop-color="#FFC200" stop-opacity="0"/>
<stop offset="0.203" stop-color="#FFBB00" stop-opacity="0.203"/>
<stop offset="0.499" stop-color="#FFA700" stop-opacity="0.499"/>
<stop offset="0.852" stop-color="#FF8800" stop-opacity="0.852"/>
<stop offset="1" stop-color="#FF7800"/>
</linearGradient>
<linearGradient id="paint17_linear_814_48185" x1="77.3082" y1="24.3789" x2="85.6115" y2="16.0757" gradientUnits="userSpaceOnUse">
<stop stop-color="#FFC200" stop-opacity="0"/>
<stop offset="0.203" stop-color="#FFBB00" stop-opacity="0.203"/>
<stop offset="0.499" stop-color="#FFA700" stop-opacity="0.499"/>
<stop offset="0.852" stop-color="#FF8800" stop-opacity="0.852"/>
<stop offset="1" stop-color="#FF7800"/>
</linearGradient>
<linearGradient id="paint18_linear_814_48185" x1="71.3871" y1="13.8787" x2="77.5073" y2="18.9988" gradientUnits="userSpaceOnUse">
<stop stop-color="#FFC200" stop-opacity="0"/>
<stop offset="0.203" stop-color="#FFBB00" stop-opacity="0.203"/>
<stop offset="0.499" stop-color="#FFA700" stop-opacity="0.499"/>
<stop offset="0.852" stop-color="#FF8800" stop-opacity="0.852"/>
<stop offset="1" stop-color="#FF7800"/>
</linearGradient>
<linearGradient id="paint19_linear_814_48185" x1="75.975" y1="5.43273" x2="73.4949" y2="12.4729" gradientUnits="userSpaceOnUse">
<stop stop-color="#FFC200" stop-opacity="0"/>
<stop offset="0.203" stop-color="#FFBB00" stop-opacity="0.203"/>
<stop offset="0.499" stop-color="#FFA700" stop-opacity="0.499"/>
<stop offset="0.852" stop-color="#FF8800" stop-opacity="0.852"/>
<stop offset="1" stop-color="#FF7800"/>
</linearGradient>
<linearGradient id="paint20_linear_814_48185" x1="85.3106" y1="6.16802" x2="67.0901" y2="13.9282" gradientUnits="userSpaceOnUse">
<stop stop-color="#FFC200" stop-opacity="0"/>
<stop offset="0.203" stop-color="#FFBB00" stop-opacity="0.203"/>
<stop offset="0.499" stop-color="#FFA700" stop-opacity="0.499"/>
<stop offset="0.852" stop-color="#FF8800" stop-opacity="0.852"/>
<stop offset="1" stop-color="#FF7800"/>
</linearGradient>
<clipPath id="clip0_814_48185">
<rect width="24" height="24" fill="white" transform="translate(34)"/>
</clipPath>
<clipPath id="clip1_814_48185">
<rect width="24" height="24" fill="white"/>
</clipPath>
<clipPath id="clip2_814_48185">
<rect width="24" height="24" fill="white" transform="translate(68)"/>
</clipPath>
</defs>
</svg>
