<svg width="50" height="42" viewBox="0 0 50 42" fill="none" xmlns="http://www.w3.org/2000/svg">
<g clip-path="url(#clip0_712_2957)">
<path d="M16.219 21.6915C20.535 21.2256 23.6478 17.3247 23.1779 12.9708C22.7079 8.61697 18.8343 5.47017 14.5183 5.93605C10.2023 6.40193 7.08948 10.3029 7.55945 14.6567C8.02941 19.0105 11.903 22.1573 16.219 21.6915ZM21.8168 23.3642L21.2381 23.4267C19.8638 24.2866 18.2987 24.8825 16.5834 25.0676C14.8682 25.2528 13.219 25.0039 11.6858 24.4578L11.1071 24.5203C6.67255 24.9989 3.46651 29.0167 3.94938 33.4901L4.16804 35.5158C4.36923 37.3797 6.03156 38.7301 7.87927 38.5307L27.9601 36.3631C29.8078 36.1636 31.1436 34.4896 30.9425 32.6257L30.7238 30.6C30.2409 26.1266 26.2513 22.8855 21.8168 23.3642ZM36.2998 19.5239C39.9952 19.125 42.6669 15.7769 42.2645 12.049C41.8622 8.3212 38.5375 5.62035 34.8421 6.01925C31.1467 6.41814 28.4749 9.76625 28.8773 13.4941C29.2797 17.2219 32.6044 19.9228 36.2998 19.5239ZM39.8896 21.4134L39.6246 21.442C38.6919 21.8842 37.6912 22.2199 36.6035 22.3374C35.5158 22.4548 34.4665 22.3403 33.4609 22.1073L33.196 22.1359C31.7736 22.2895 30.5075 22.8459 29.4292 23.6383C31.3302 25.3045 32.6619 27.6441 32.955 30.3591L33.2465 33.0601C33.2632 33.2148 33.2443 33.3663 33.2533 33.5147L45.5667 32.1856C47.4145 31.9861 48.7503 30.3121 48.5491 28.4482C48.0791 24.0943 44.2055 20.9475 39.8896 21.4134Z" fill="#3A68BF"/>
</g>
<defs>
<clipPath id="clip0_712_2957">
<rect width="44.8833" height="36.2216" fill="white" transform="translate(0.888184 5.13037) rotate(-6.16081)"/>
</clipPath>
</defs>
</svg>
