<svg xmlns:xlink="http://www.w3.org/1999/xlink" id="Capa_1" enable-background="new 0 0 512 512" height="30" viewBox="0 0 512 512" width="30" xmlns="http://www.w3.org/2000/svg"><g><g><path d="m40.664 376.359h429.643v113.064h-429.643z" fill="#BE694F"></path><path d="m40.664 376.359h429.643v30.594h-429.643z" fill="#AA593D"></path><path d="m40.664 376.359h26.603v113.064h-26.603z" fill="#AA593D"></path><g><path d="m243.572 299.3v52.785h-196.186v-52.785c0-25.031 11.468-47.375 29.45-62.066 13.803-11.286 31.454-18.062 50.678-18.062h35.93c19.223 0 36.875 6.776 50.678 18.073 17.982 14.68 29.45 37.024 29.45 62.055z" fill="#CBE2FF"></path><path d="m163.684 219.172c-19.132.057-36.704 6.822-50.45 18.062-17.982 14.691-29.45 37.035-29.45 62.066v52.785h-36.398v-52.785c0-25.031 11.468-47.375 29.45-62.066 13.803-11.286 31.454-18.062 50.678-18.062z" fill="#BED8FB"></path><path d="m214.122 237.245-33.595 46.635-11.058-11.047h-47.979l-11.058 11.047-33.595-46.646c13.803-11.286 31.454-18.062 50.678-18.062h35.93c19.223 0 36.875 6.776 50.677 18.073z" fill="#DDEAFB"></path><path d="m119.429 352.09 26.057-56.839 26.045 56.839" fill="#365E7D"></path><path d="m128.514 255.863h33.933v33.933h-33.933z" fill="#365E7D" transform="matrix(.707 .707 -.707 .707 235.53 -22.96)"></path><path d="m226.231 173.442h-161.501c-12.969 0-23.482-10.513-23.482-23.482 0-12.969 10.513-23.482 23.482-23.482h161.501c12.969 0 23.482 10.513 23.482 23.482-.001 12.969-10.514 23.482-23.482 23.482z" fill="#EAAC9D"></path><path d="m145.48 248.835c-37.547 0-67.985-30.438-67.985-67.985v-64.407c0-37.547 30.438-67.985 67.985-67.985 37.547 0 67.985 30.438 67.985 67.985v64.407c0 37.547-30.437 67.985-67.985 67.985z" fill="#FFDDCE"></path><path d="m162.93 246.581c-5.568 1.48-11.406 2.26-17.445 2.26-37.553 0-67.99-30.438-67.99-67.99v-64.399c0-37.553 30.438-67.99 67.99-67.99 6.039 0 11.876.78 17.445 2.26-29.106 7.707-50.545 34.217-50.545 65.73v64.399c0 31.513 21.439 58.023 50.545 65.73z" fill="#FFCBBE"></path><path d="m87.216 35.115h5.973c18.116 0 32.801 14.686 32.801 32.801v.252c0 18.116-14.686 32.801-32.801 32.801h-5.973c-18.116 0-32.801-14.686-32.801-32.801v-.252c0-18.116 14.686-32.801 32.801-32.801z" fill="#FFE07D"></path><path d="m101.95 99.77c-2.79.786-5.728 1.196-8.758 1.196h-5.967c-18.119 0-32.81-14.68-32.81-32.798v-.251c0-18.119 14.691-32.798 32.81-32.798h5.967c3.029 0 5.967.41 8.758 1.196-13.871 3.815-24.052 16.513-24.052 31.602v.251c0 15.089 10.181 27.787 24.052 31.602z" fill="#FFD064"></path><path d="m120.297 58.365c0 26.04 21.109 47.149 47.149 47.149 42.354 0 76.688-34.334 76.688-76.688v-6.249h-89.767c-19.497 0-35.028 16.313-34.07 35.788z" fill="#FFE07D"></path><path d="m182.75 103.986c-4.942 1.002-10.067 1.526-15.306 1.526-26.045 0-47.147-21.103-47.147-47.148-.957-19.474 14.577-35.782 34.074-35.782h27.264c-19.497 0-35.03 16.308-34.074 35.782-.001 21.912 14.941 40.326 35.189 45.622z" fill="#FFD064"></path></g><path d="m485.604 389.876h-459.208c-10.436 0-18.896-8.46-18.896-18.896 0-10.436 8.46-18.896 18.896-18.896h459.209c10.436 0 18.896 8.46 18.896 18.896-.001 10.436-8.461 18.896-18.897 18.896z" fill="#BE694F"></path><path d="m70.44 389.87h-44.04c-10.44 0-18.9-8.46-18.9-18.89 0-5.22 2.12-9.94 5.54-13.36s8.14-5.54 13.36-5.54h44.04c-5.22 0-9.94 2.12-13.36 5.54s-5.53 8.14-5.53 13.36c0 10.43 8.46 18.89 18.89 18.89z" fill="#AA593D"></path><g><path d="m438.785 295.48h-203.927c-16.786 0-30.395-13.608-30.395-30.395v-134.525c0-16.786 13.608-30.395 30.395-30.395h203.927c16.786 0 30.395 13.608 30.395 30.395v134.526c0 16.786-13.608 30.394-30.395 30.394z" fill="#365E7D"></path><g fill="#2B4D66"><path d="m257.579 295.473h-22.72c-16.786 0-30.395-13.609-30.395-30.396v-134.517c0-16.798 13.609-30.395 30.395-30.395h22.72c-16.786 0-30.395 13.598-30.395 30.395v134.518c-.001 16.786 13.608 30.395 30.395 30.395z" fill="#2B4D66"></path><path d="m295.921 195.599h81.801v156.486h-81.801z" fill="#2B4D66"></path></g></g></g><g><path d="m156.869 191.022c11.083 0 22.167-4.219 30.604-12.657 2.929-2.929 2.929-7.678 0-10.606-2.929-2.929-7.678-2.929-10.606 0-11.027 11.026-28.969 11.026-39.996 0-2.929-2.929-7.678-2.929-10.606 0-2.929 2.929-2.929 7.678 0 10.606 8.437 8.439 19.52 12.657 30.604 12.657z"></path><path d="m139.129 146.091c4.142 0 7.5-3.358 7.5-7.5v-13.733c0-4.142-3.358-7.5-7.5-7.5s-7.5 3.358-7.5 7.5v13.733c0 4.142 3.358 7.5 7.5 7.5z"></path><path d="m174.607 146.091c4.142 0 7.5-3.358 7.5-7.5v-13.733c0-4.142-3.358-7.5-7.5-7.5s-7.5 3.358-7.5 7.5v13.733c0 4.142 3.358 7.5 7.5 7.5z"></path><path d="m485.604 344.585h-100.381v-41.605h53.567c20.893 0 37.89-16.998 37.89-37.89v-92.67c0-4.142-3.357-7.5-7.5-7.5s-7.5 3.358-7.5 7.5v92.67c0 12.622-10.269 22.89-22.89 22.89h-53.567v-92.381c0-4.142-3.357-7.5-7.5-7.5h-81.801c-4.143 0-7.5 3.358-7.5 7.5v92.381h-53.562c-12.627 0-22.9-10.269-22.9-22.89v-134.53c0-12.627 10.273-22.9 22.9-22.9h203.93c12.621 0 22.89 10.273 22.89 22.9v11.86c0 4.142 3.357 7.5 7.5 7.5s7.5-3.358 7.5-7.5v-11.86c0-20.898-16.997-37.9-37.89-37.9h-203.93c-4.902 0-9.585.946-13.89 2.648v-1.546c18.716-15.454 30.664-38.826 30.664-64.936v-6.249c0-4.142-3.358-7.5-7.5-7.5h-89.767c-11.503 0-22.206 4.588-30.138 12.919-2.408 2.529-4.454 5.299-6.126 8.248-6.988-5.516-15.692-8.624-24.913-8.624h-5.979c-22.221 0-40.298 18.078-40.298 40.298v.25c0 16.058 9.443 29.948 23.066 36.42v14.394h-5.251c-8.283 0-16.066 3.221-21.915 9.07-5.849 5.85-9.069 13.627-9.068 21.901 0 8.28 3.225 16.062 9.079 21.913 5.852 5.849 13.631 9.07 21.907 9.069h5.251c.02 15.837 4.95 30.539 13.333 42.684-11.794 6.887-21.82 16.442-29.329 28.022-.864 1.223-1.371 2.715-1.371 4.326 0 4.142 3.363 7.5 7.505 7.5 2.551 0 4.927-1.297 6.308-3.442 2.698-4.194 5.801-8.062 9.24-11.577l28.68 39.814c1.286 1.785 3.29 2.915 5.482 3.092.202.017.403.024.604.024 1.98 0 3.891-.785 5.303-2.197l5.75-5.75 14.512 14.512-21.377 46.632h-59.732v-45.275c0-4.789.47-9.579 1.396-14.237.808-4.062-1.831-8.011-5.893-8.819-4.068-.809-8.011 1.831-8.819 5.893-1.118 5.619-1.684 11.394-1.684 17.163v45.285h-13.494c-14.555 0-26.396 11.841-26.396 26.395s11.841 26.396 26.396 26.396h6.769v92.047c0 4.142 3.358 7.5 7.5 7.5h429.644c4.143 0 7.5-3.358 7.5-7.5v-92.047h7.797c14.555 0 26.396-11.841 26.396-26.396s-11.843-26.395-26.398-26.395zm-182.182-141.486h66.801v141.486h-66.801zm-15 141.486h-37.352v-41.605h37.352zm-53.562-41.605h1.21v41.6h-59.73l-21.371-46.638 14.506-14.506 5.755 5.75c1.412 1.411 3.321 2.194 5.3 2.194.201 0 .403-.008.606-.024 2.191-.178 4.195-1.308 5.48-3.092l11.136-15.459c3.574 17.205 18.853 30.175 37.108 30.175zm-37.9-54.74-17.364 24.105-4.772-4.768c-.016-.016-.029-.034-.046-.05l-12.991-12.991c13.172-2.933 25.333-9.346 35.173-18.5zm-61.867-209.901c5.073-5.328 11.917-8.262 19.274-8.262h82.255c-.668 37.577-31.443 67.937-69.177 67.937-21.863 0-39.649-17.787-39.649-39.649 0-.123-.003-.246-.009-.368-.361-7.349 2.234-14.33 7.306-19.658zm-73.179 29.83v-.25c0-13.95 11.349-25.298 25.298-25.298h5.979c7.806 0 15.025 3.54 19.796 9.572-.221 2.089-.285 4.212-.189 6.355.022 6.873 1.333 13.445 3.682 19.504-3.924 9.312-12.983 15.416-23.288 15.416h-5.979c-13.951-.001-25.299-11.349-25.299-25.299zm25.298 40.298h5.979c12.826 0 24.451-5.936 31.904-15.613 10.029 12.292 25.286 20.159 42.351 20.159 13.879 0 26.971-3.396 38.524-9.37v2.424c-5.613 6.611-9.01 15.16-9.01 24.492v82.064c-10.971 17.738-30.482 28.685-51.403 28.716-.05 0-.1 0-.151 0-33.325-.035-60.427-27.16-60.427-60.499v-72.438c.74.041 1.484.065 2.233.065zm-22.482 57.471c-4.27 0-8.283-1.661-11.302-4.679-3.02-3.018-4.683-7.032-4.683-11.305 0-4.268 1.66-8.278 4.676-11.294 3.015-3.016 7.031-4.677 11.308-4.677h5.251v31.954zm22.514 72.92c1.933-1.289 3.926-2.493 5.984-3.595 9.822 9.435 22.175 16.24 35.935 19.283l-12.98 12.98-4.818 4.818zm58.236 20.584 13.388 13.388-13.388 13.388-13.388-13.388zm.004 53.81 14.355 31.328h-28.717zm317.324 168.671h-414.644v-84.547h414.644zm22.796-99.547h-459.208c-6.284 0-11.396-5.112-11.396-11.396s5.112-11.396 11.396-11.396h459.209c6.283 0 11.396 5.112 11.396 11.396s-5.113 11.396-11.397 11.396z"></path><path d="m437.937 124.477h-39.764c-4.143 0-7.5 3.358-7.5 7.5s3.357 7.5 7.5 7.5h39.764c4.143 0 7.5-3.358 7.5-7.5s-3.358-7.5-7.5-7.5z"></path><path d="m437.937 151.175h-39.764c-4.143 0-7.5 3.358-7.5 7.5s3.357 7.5 7.5 7.5h39.764c4.143 0 7.5-3.358 7.5-7.5s-3.358-7.5-7.5-7.5z"></path><path d="m437.937 177.874h-39.764c-4.143 0-7.5 3.358-7.5 7.5s3.357 7.5 7.5 7.5h39.764c4.143 0 7.5-3.358 7.5-7.5s-3.358-7.5-7.5-7.5z"></path><path d="m275.472 124.477h-39.765c-4.142 0-7.5 3.358-7.5 7.5s3.358 7.5 7.5 7.5h39.765c4.143 0 7.5-3.358 7.5-7.5s-3.358-7.5-7.5-7.5z"></path><path d="m275.472 151.175h-39.765c-4.142 0-7.5 3.358-7.5 7.5s3.358 7.5 7.5 7.5h39.765c4.143 0 7.5-3.358 7.5-7.5s-3.358-7.5-7.5-7.5z"></path><path d="m275.472 177.874h-39.765c-4.142 0-7.5 3.358-7.5 7.5s3.358 7.5 7.5 7.5h39.765c4.143 0 7.5-3.358 7.5-7.5s-3.358-7.5-7.5-7.5z"></path></g></g></svg>