<svg xmlns:xlink="http://www.w3.org/1999/xlink" height="30" viewBox="0 0 64 64" width="30" xmlns="http://www.w3.org/2000/svg"><g id="Layer_33" data-name="Layer 33"><path d="m35 43.034v19.966h-34v-19.966a8 8 0 0 1 5.8-7.692l8.2-2.342h6l8.2 2.342a8 8 0 0 1 5.8 7.692z" fill="#62B5E8"></path><path d="m9.8 35.342 8.2-2.342h-3l-8.2 2.342a8 8 0 0 0 -5.8 7.692v19.966h3v-19.966a8 8 0 0 1 5.8-7.692z" fill="#44A7D8"></path><path d="m15 28h6v7h-6z" fill="#F7D1C6"></path><path d="m46 3a12 12 0 0 1 12 12v32a0 0 0 0 1 0 0h-24a0 0 0 0 1 0 0v-32a12 12 0 0 1 12-12z" fill="#C67A60"></path><path d="m47.5 3.1a11.927 11.927 0 0 0 -13.5 11.9v32h3v-32a11.994 11.994 0 0 1 10.5-11.9z" fill="#B26049"></path><path d="m63 45.034v17.966h-34v-17.966a8 8 0 0 1 5.8-7.692l8.2-2.342h6l8.2 2.342a8 8 0 0 1 5.8 7.692z" fill="#F2A7B1"></path><path d="m37.8 37.342 8.2-2.342h-3l-8.2 2.342a8 8 0 0 0 -5.8 7.692v17.966h3v-17.966a8 8 0 0 1 5.8-7.692z" fill="#E8859B"></path><path d="m43 30h6a0 0 0 0 1 0 0v5a3 3 0 0 1 -3 3 3 3 0 0 1 -3-3v-5a0 0 0 0 1 0 0z" fill="#F7D1C6"></path><path d="m9 11h18a0 0 0 0 1 0 0v11a9 9 0 0 1 -9 9 9 9 0 0 1 -9-9v-11a0 0 0 0 1 0 0z" fill="#F7D1C6"></path><path d="m12 22v-11h-3v11a8.951 8.951 0 0 0 10.5 8.865 8.995 8.995 0 0 1 -7.5-8.865z" fill="#F4B19F"></path><path d="m9 15a0 0 0 0 1 0 0v6a0 0 0 0 1 0 0 3 3 0 0 1 -3-3 3 3 0 0 1 3-3z" fill="#F4B19F"></path><path d="m30 15a0 0 0 0 1 0 0v6a0 0 0 0 1 0 0 3 3 0 0 1 -3-3 3 3 0 0 1 3-3z" fill="#F7D1C6" transform="matrix(-1 0 0 -1 57 36)"></path><path d="m46 33a9 9 0 0 1 -9-9v-7h4a8 8 0 0 0 6.4-3.2l.6-.8.6.8a8 8 0 0 0 6.4 3.2v7a9 9 0 0 1 -9 9z" fill="#F7D1C6"></path><path d="m40 24v-7h-3v7a8.951 8.951 0 0 0 10.5 8.865 8.995 8.995 0 0 1 -7.5-8.865z" fill="#F4B19F"></path><path d="m37 17a0 0 0 0 1 0 0v6a0 0 0 0 1 0 0 3 3 0 0 1 -3-3 3 3 0 0 1 3-3z" fill="#F4B19F"></path><path d="m58 17a0 0 0 0 1 0 0v6a0 0 0 0 1 0 0 3 3 0 0 1 -3-3 3 3 0 0 1 3-3z" fill="#F7D1C6" transform="matrix(-1 0 0 -1 113 40)"></path><path d="m24 3.988v-.988a2 2 0 0 0 -2-2h-7.686a8.314 8.314 0 0 0 -8.314 8.314 5.686 5.686 0 0 0 5.686 5.686 18 18 0 0 0 11.244-3.944l.07-.056a4 4 0 0 0 4 4v-9.012a2 2 0 0 0 -2-2z" fill="#C67A60"></path><path d="m9 9.314a8.314 8.314 0 0 1 8.314-8.314h-3a8.314 8.314 0 0 0 -8.314 8.314 5.686 5.686 0 0 0 5.686 5.686 17.943 17.943 0 0 0 1.886-.111 5.686 5.686 0 0 1 -4.572-5.575z" fill="#B26049"></path><path d="m29 51h6v11.988h-6z" fill="#F7D1C6"></path><path d="m29 51h3v11.988h-3z" fill="#F4B19F"></path><path d="m57 51.012h6v11.988h-6z" fill="#F7D1C6"></path><path d="m18 35-3-3-2 2 2 5z" fill="#44A7D8"></path><path d="m18 35 3-3 2 2-2 5z" fill="#44A7D8"></path><path d="m59 36.98v-21.98a13 13 0 0 0 -26 0v21.334a8.973 8.973 0 0 0 -3.527-1.953l-6.558-1.881-1.208-1.208-.013-.009a10.009 10.009 0 0 0 6.306-9.283v-.142a3.981 3.981 0 0 0 0-7.716v-8.154a3 3 0 0 0 -3-3 3 3 0 0 0 -3-2.988h-7.686a9.324 9.324 0 0 0 -9.314 9.314 6.669 6.669 0 0 0 2.331 5.062 3.982 3.982 0 0 0 .669 7.482v.142a10.009 10.009 0 0 0 6.306 9.284l-.013.009-1.217 1.217-6.548 1.871a9.037 9.037 0 0 0 -6.528 8.653v19.966a1 1 0 0 0 1 1h62a1 1 0 0 0 1-1v-17.966a9.041 9.041 0 0 0 -5-8.054zm-31-20.711a2 2 0 0 1 0 3.462zm7-1.269a11 11 0 0 1 22 0v1.556a3.959 3.959 0 0 0 -2-.556 7.035 7.035 0 0 1 -5.6-2.8l-.6-.8a1.036 1.036 0 0 0 -1.6 0l-.6.8a7.035 7.035 0 0 1 -5.6 2.8h-4a3.959 3.959 0 0 0 -2 .556zm11 17a8.009 8.009 0 0 1 -8-8v-6h3a9.044 9.044 0 0 0 7-3.344 9.049 9.049 0 0 0 6 3.287v6.057a8.009 8.009 0 0 1 -8 8zm2 1.8v1.2a2 2 0 0 1 -4 0v-1.2a10 10 0 0 0 4 0zm2-.639a10.01 10.01 0 0 0 6-9.161v-.142a3.966 3.966 0 0 0 1-.414v12.8l-7-2zm6-11.428v-3.464a2 2 0 0 1 0 3.462zm-20-3.464v3.462a2 2 0 0 1 0-3.462zm-1 5.175a3.966 3.966 0 0 0 1 .414v.142a10.01 10.01 0 0 0 6 9.159v1.087l-7 2zm-13.173 10.8-1.1 2.736-1.407-1.886 1.68-1.68zm-3.827-.658-1.749-1.749a9.465 9.465 0 0 0 3.5 0zm-10-13.855a2 2 0 0 1 0-3.462zm-1-10.417a7.322 7.322 0 0 1 7.314-7.314h7.686a1 1 0 0 1 1 1v.988a1 1 0 0 0 1 1h1a1 1 0 0 1 1 1v7.841a3.006 3.006 0 0 1 -2-2.829 1 1 0 0 0 -.6-.874 1.068 1.068 0 0 0 -1.092.149 17.065 17.065 0 0 1 -10.622 3.725 4.691 4.691 0 0 1 -4.686-4.686zm3 12.686v-6.224a6.657 6.657 0 0 0 1.686.224 19.082 19.082 0 0 0 10.627-3.257 5.014 5.014 0 0 0 3.687 3.144v6.113a8 8 0 0 1 -16 0zm5 11.414 1.68 1.68-1.412 1.883-1.1-2.736zm13 11.62v16.966h-20v-17a1 1 0 0 0 -2 0v17h-4v-18.966a7.029 7.029 0 0 1 5.077-6.734l5.176-1.479 1.818 4.547a1 1 0 0 0 .8.619.972.972 0 0 0 .129.013 1 1 0 0 0 .8-.4l2.2-2.933 2.2 2.933a1 1 0 0 0 .8.4.972.972 0 0 0 .131-.009 1 1 0 0 0 .8-.619l1.818-4.547 5.174 1.475a6.987 6.987 0 0 1 2.731 1.506 9.031 9.031 0 0 0 -3.654 7.228zm6 16.954h-4v-9.988h4zm28 .012h-4v-9.988h4zm0-11.988h-5a1 1 0 0 0 -1 1v10.988h-20v-11a1 1 0 0 0 -1-1h-5v-4.966a7.029 7.029 0 0 1 5.077-6.73l7.147-2.042a3.973 3.973 0 0 0 7.553 0l7.146 2.038a7.029 7.029 0 0 1 5.077 6.734z"></path><path d="m13 17a1 1 0 0 0 -1 1v1a1 1 0 0 0 2 0v-1a1 1 0 0 0 -1-1z"></path><path d="m23 20a1 1 0 0 0 1-1v-1a1 1 0 0 0 -2 0v1a1 1 0 0 0 1 1z"></path><path d="m20.707 26.707a1 1 0 0 0 -1.414-1.414 1.536 1.536 0 0 1 -2.586 0 1 1 0 0 0 -1.414 1.414 3.862 3.862 0 0 0 2.707 1.293 3.862 3.862 0 0 0 2.707-1.293z"></path><path d="m41 19a1 1 0 0 0 -1 1v1a1 1 0 0 0 2 0v-1a1 1 0 0 0 -1-1z"></path><path d="m52 21v-1a1 1 0 0 0 -2 0v1a1 1 0 0 0 2 0z"></path><path d="m47.293 27.293a1.536 1.536 0 0 1 -2.586 0 1 1 0 0 0 -1.414 1.414 3.484 3.484 0 0 0 5.414 0 1 1 0 0 0 -1.414-1.414z"></path></g></svg>